<svg width="156" height="156" viewBox="0 0 156 156" fill="none" xmlns="http://www.w3.org/2000/svg">
<rect opacity="0.2" width="156" height="156" rx="36" fill="#C7D978"/>
<g filter="url(#filter0_dd_316_3291)">
<mask id="path-2-outside-1_316_3291" maskUnits="userSpaceOnUse" x="13.3627" y="14.4791" width="53" height="47" fill="black">
<rect fill="white" x="13.3627" y="14.4791" width="53" height="47"/>
<path fill-rule="evenodd" clip-rule="evenodd" d="M59.9178 59.5655L61.7548 57.8288C60.5247 56.2976 59.4 55.0859 57.3461 52.8857C57.9139 52.0508 57.2125 50.0468 57.4797 47.7757C57.8925 46.3082 58.7932 45.5339 60.4522 44.8366C62.1556 44.5694 63.0615 44.297 63.2243 43.8681C63.2243 43.7345 61.7548 44.3691 61.7214 43.7679C61.7997 42.5196 63.2911 42.2983 64.8275 42.5989C66.3638 42.8995 63.7253 41.5636 63.7253 41.5636C63.6702 41.0772 64.6939 40.4948 64.5603 40.2944C64.4267 40.094 63.8164 40.7286 63.7253 40.5282C63.5583 40.1608 64.5603 39.1588 64.4601 38.9585C64.2193 38.4768 61.9886 41.8975 61.7214 41.7974C61.4339 41.6896 61.8884 41.1628 61.7882 41.0292C61.4336 40.5565 58.8825 45.9722 57.5799 45.7718C56.8836 45.2783 59.6173 42.0979 61.2872 40.5282C61.4578 40.5299 64.3731 38.4982 63.9591 38.3239C63.2577 38.1235 62.4722 38.8239 62.0888 38.5911C61.1536 38.0233 63.9322 35.6655 63.7921 35.5184C63.2243 34.9222 62.5366 36.0531 62.3894 35.9192C62.2421 35.7852 62.3952 35.6063 62.1222 35.485C61.3874 35.1584 59.8844 39.593 59.476 39.4594C59.2947 39.7081 59.1555 39.8249 59.0829 39.7266C58.5151 38.9585 60.8864 36.0528 60.9532 35.8858C61.02 35.7188 60.686 35.5852 60.5524 35.485C60.4188 35.3848 60.7194 34.316 60.5524 34.1824C60.3854 34.0488 60.3186 34.3494 60.0514 34.1824C59.7842 34.0154 60.9198 31.1766 59.7508 31.1766C59.2165 31.1766 59.1163 32.4791 58.5485 32.4791C58.2813 32.4791 57.8956 30.1842 57.5799 30.3416C57.2642 30.499 57.1433 30.6422 56.9119 31.1766C56.6806 31.7109 57.9807 33.4644 57.4797 33.8818C56.9787 34.2993 56.6486 33.1103 56.244 33.1471C55.7658 33.1906 56.2778 35.2004 56.5372 36.6539C57.0313 37.5617 57.1308 38.1933 56.5446 38.1235C55.4758 37.9962 56.0875 36.1864 54.574 35.485C53.8192 35.1352 54.2804 36.6954 55.3107 38.0567C55.9839 38.5338 56.5109 39.0675 56.8451 39.5006C57.2311 40.4006 57.1791 42.4653 56.6447 42.5655C55.7764 42.6657 55.91 40.4948 55.1418 40.2276C54.712 40.0781 54.3736 40.6618 54.1064 40.6952C53.8392 40.7286 52.7705 40.3612 52.6369 40.2944C52.5033 40.2276 52.1359 39.7934 51.7351 40.2944C51.2299 40.926 52.3697 40.6952 53.4385 41.5302C53.6163 41.6369 53.9528 42.0324 54.3338 42.5655C54.908 44.0685 56.6781 45.5714 56.1104 46.9408C55.8711 47.5179 55.5426 45.538 54.8746 45.4712C53.1713 45.3376 54.3338 44.536 52.0023 43.5341C51.4345 43.0999 51.0003 41.9977 50.2656 42.4319C49.5647 42.8461 50.1385 43.2365 50.7753 43.8681C51.1005 43.9349 51.334 44.4553 51.5347 44.8366C50.7331 45.5714 51.1673 45.538 51.7351 46.1058C52.575 46.2551 52.585 46.3978 52.4365 46.6736C53.572 48.7443 55.6762 45.9054 56.0102 51.5832C55.91 51.65 51.5347 47.0744 47.7272 43.9683C47.627 43.8865 47.3599 42.2983 47.3599 42.2983C46.5147 41.244 46.9417 40.4831 48.0612 39.0587C48.629 38.9251 48.1614 38.7581 48.8294 37.9899C48.1948 37.5557 48.1733 37.0925 48.8294 36.0194C49.1153 35.5518 50.1693 34.3514 49.8314 34.1824C48.8962 33.7149 49.0966 36.1864 48.128 36.1864C47.1595 36.0194 51.4011 29.206 49.2636 27.8701C48.9296 27.7031 48.1027 28.7768 48.0946 30.1746C47.794 31.3769 47.4935 32.6461 46.9257 32.6127C45.8787 32.5511 47.4267 28.8386 45.3225 27.2355C44.8215 26.8538 45.0887 28.7485 44.354 29.0056C43.6192 29.2628 42.3166 26.8013 41.8824 27.0351C41.4482 27.2689 42.1496 28.0037 41.849 28.1373C41.5484 28.2709 41.24 28.0037 41.0475 28.4713C40.8137 29.039 43.334 30.0076 43.2852 30.6422C43.2646 30.9094 43.686 31.0764 43.3186 31.21C42.9512 31.3435 41.7483 30.8299 41.5484 31.1098C41.2145 31.5773 44.5877 32.6127 44.8883 35.2512C44.9302 35.6186 43.6526 33.9152 43.2852 34.2826C42.9178 34.65 43.8196 35.485 43.8196 35.485C45.3131 36.8475 45.3277 37.5234 45.7901 38.8583C46.0062 39.2662 46.0744 39.7206 46.1575 40.6952C46.3648 41.4217 46.628 42.7237 46.4581 42.8661C46.2882 43.0085 41.9876 39.4882 41.849 39.3258C40.4797 38.6913 38.0082 36.6873 37.741 36.2866C37.3466 36.0181 37.2066 35.6854 36.7056 35.4778C34.6294 33.5862 34.7066 31.5374 34.5086 28.2375C34.3493 27.6218 34.2357 27.2355 34.1673 27.2355C33.8667 27.2355 33.9001 27.8701 33.5327 27.7365C33.1653 27.6029 33.0985 26.0999 32.9315 25.3652C32.7873 24.7306 32.2635 23.1275 32.0298 23.1275C31.796 23.1275 31.9344 26.5341 30.8274 25.098C29.7204 23.6618 29.8442 21.0637 29.5582 21.3573C28.3225 22.6265 29.9134 26.0142 30.6604 27.3691C34.5086 34.3494 28.6565 27.2355 28.6565 27.2355C27.7233 26.2962 27.4773 25.6729 27.3205 24.4634C27.2391 22.1435 26.2517 20.2552 25.7174 19.3534C25.2254 16.7933 24.181 15.6795 23.6132 15.4791C22.9119 15.4791 24.4148 19.3534 23.7802 21.3239C23.2458 21.5243 23.0495 20.04 22.9119 17.9841C22.7871 17.1226 22.6726 16.7257 22.3775 16.1805C21.3784 15.9365 21.3245 16.648 21.2085 17.8839C21.7095 21.2237 22.3706 22.1825 21.8097 22.5263C21.2298 22.8817 20.3401 20.8597 19.6388 20.322C18.6368 19.5538 17.5088 18.8169 16.5661 19.2532C16.2657 19.3922 18.3362 19.8878 18.737 21.1569C16.7282 20.9988 15.1035 20.7521 15.3971 21.3239C15.3342 21.7983 15.9957 21.8212 17.234 22.1589C18.3362 22.4595 18.6351 22.853 18.8372 23.3946C18.3836 23.6769 17.1672 23.4948 16.5661 23.6618C16.6996 24.6972 19.1044 24.5302 18.737 25.6324C18.5277 25.8881 18.2584 26.0047 16.5661 25.9997C16.342 26.7372 16.6108 27.0625 17.2674 27.6029C17.2674 27.6029 18.6103 28.459 19.5386 28.872C20.1495 29.1438 20.5083 29.2589 21.1417 29.4732C22.7782 30.027 25.4836 30.542 25.4836 30.542C27.4526 30.8035 27.4964 31.1127 27.4875 31.6775C26.848 31.9174 26.3096 31.7241 25.183 31.0764C24.4148 31.0552 23.9886 31.0463 23.4462 31.1766C22.5899 30.9284 21.7322 31.1738 19.6054 32.2119C18.4383 32.1364 18.3028 32.6461 18.737 32.7463C19.1044 32.9801 20.2065 32.7129 22.3441 32.8465C23.5035 33.3004 23.73 33.3331 24.5818 33.4811C24.5818 33.4811 25.2859 33.3436 25.7508 33.6815C26.0867 33.9257 26.7496 33.77 26.8195 33.815C26.9941 33.5439 27.4274 33.732 27.8883 33.982C27.8883 33.982 29.8911 34.3729 31.128 34.7836C33.1764 35.4638 34.2922 36.0159 36.1044 37.1883C36.7056 38.0233 36.8058 37.4889 37.3736 38.0233C38.4694 38.0666 39.4443 39.6598 39.5111 40.0606C39.0601 40.0432 38.8316 40.0419 38.6761 40.1608C38.7763 41.4968 41.4816 41.6971 40.7135 43.0999C40.1457 43.6009 39.2619 42.5137 38.6761 41.764C37.741 40.567 37.6247 39.3714 36.8726 38.7247C35.3696 39.6598 34.2341 37.6893 33.7999 37.8563C33.3657 38.0233 34.1339 38.4575 33.1987 38.9585C33.3696 39.2425 33.654 39.4507 34.4345 39.8936C37.4738 40.762 37.574 42.2267 37.3736 42.3317C36.6722 42.6991 35.2801 42.142 33.7331 40.4614C33.3191 39.8465 33.034 39.629 32.2969 39.7934C32.1454 40.3863 31.9295 40.4614 31.0612 40.4614C30.8942 41.764 28.1122 39.9938 27.8883 40.6284C27.6643 41.263 29.2577 41.43 29.2242 41.597C29.1908 41.7639 27.7574 41.6135 27.6211 42.1313C27.4541 42.7659 29.7419 42.3985 29.792 42.5989C29.8421 42.7993 27.8019 43.3 28.2223 43.8347C28.6426 44.3693 30.0592 43.7345 30.5268 43.6009C31.295 42.9997 32.2402 42.8158 32.3637 42.9997C33.1912 42.9702 33.2461 43.2187 32.7645 44.0351C32.8428 44.2398 32.8458 44.3515 32.6643 44.536C32.6643 44.536 30.794 45.2708 30.6938 45.705C30.4599 46.7186 33.9001 45.0036 33.9001 45.0036C33.9001 45.0036 37.3068 42.9997 37.24 43.8347C37.1548 44.8993 34.8687 44.7698 34.8352 45.2374C34.8018 45.705 35.5366 45.6716 35.6034 45.872C35.6702 46.0724 33.7331 47.8425 34.1005 48.1765C34.6148 48.6441 36.6054 46.2728 36.6054 46.2728C37.2062 45.6013 37.6128 45.2924 38.6427 45.037C40.2175 44.736 40.818 44.7808 41.4482 45.2374C41.6152 45.3584 38.5759 47.1077 38.4757 47.1745C38.7114 47.3192 38.8054 47.4228 38.7429 47.7423C37.5763 48.007 37.1035 48.2227 36.5386 48.7109V49.4457C35.5865 50.2728 35.236 50.8818 35.6034 51.0154C36.5386 51.3555 39.1975 47.8629 39.6781 48.3435C40.0455 48.7109 39.6781 49.2119 39.6781 49.2119C39.738 49.3594 39.7783 49.8798 39.9119 49.9467C40.3377 49.9709 40.4503 49.8164 40.5799 49.4457C40.5799 49.4457 40.7803 48.0763 41.0141 47.3749C41.1811 46.874 42.5838 45.872 42.5838 45.872C42.5838 45.872 43.1512 45.27 43.6526 45.1038C44.015 44.9837 44.282 45.0179 44.6879 45.0036C46.7921 44.9298 46.1985 45.2142 48.5288 47.0744C49.5308 47.8742 49.2302 47.9093 50.299 48.9113C50.9954 49.4372 51.3529 49.7608 51.9021 50.4142C52.8464 51.3626 54.073 52.6185 54.0062 52.6854C53.8726 52.8857 51.8769 52.8796 51.1005 52.5851C50.3241 52.2906 49.5308 50.5812 48.6624 50.4142C48.2616 50.3372 48.8962 51.1824 47.9276 51.1156C46.9591 51.0488 46.3579 50.5812 46.0573 50.5812C45.7567 50.5813 45.7901 51.5832 45.1555 51.5832C44.3855 51.5832 43.6241 51.1614 43.2184 51.316C42.5838 51.5577 45.0335 52.9179 46.1909 52.9859C47.3264 53.0527 48.8736 53.356 48.8294 53.7207C48.6958 54.8229 44.2871 52.8857 43.519 52.6854C41.4448 52.1443 39.0769 51.316 38.075 51.984C37.7076 52.2289 39.651 52.7063 39.4109 53.1863C38.9767 54.0547 36.7149 52.0255 36.6054 52.5184C36.3382 53.7207 39.4777 53.7207 40.1123 55.2236C40.2115 55.4586 39.6113 55.6578 36.6054 55.1959C35.7124 55.2927 34.9584 55.582 34.8018 56.2924C34.6549 56.9591 36.2651 55.6849 36.6722 56.092C36.8392 56.259 36.257 57.0098 36.4384 57.2276C36.7724 57.6283 38.5975 55.9562 38.8431 56.6932C38.9767 57.094 37.8746 57.8288 38.1751 58.0625C38.4757 58.2963 39.1771 57.6283 39.4777 57.9289C39.7783 58.2295 38.7763 59.2315 39.1103 59.5655C39.3107 59.7659 40.1123 59.3985 40.8805 58.9309C42.0091 58.244 42.7013 58.4899 43.7862 57.9958C45.0219 57.4329 46.2243 55.591 47.293 55.6244C49.0969 55.6808 47.5936 56.7934 47.4935 56.8602C46.9873 57.1978 46.5729 57.2732 46.1575 57.6618C45.1221 58.6303 44.0199 59.6991 44.4541 60.0665C44.6545 60.236 45.2223 60.003 45.5229 59.7325C46.1909 59.1313 46.5063 58.4108 47.3599 57.8288C48.0946 57.3278 48.7261 56.9276 49.5308 56.259C50.3043 55.6163 50.5966 55.0923 51.4011 54.4889C51.9355 54.0881 52.292 53.7909 52.9709 53.7207C53.9394 53.6205 55.075 53.7875 55.075 53.7875C57.12 56.0075 58.2014 57.2676 59.9178 59.5655ZM45.8235 44.4692C43.9531 42.769 41.014 40.3612 40.9138 40.4614C40.8137 40.5616 41.6696 42.0173 42.4168 42.7993C43.853 44.3022 46.0807 44.703 45.8235 44.4692Z"/>
</mask>
<path fill-rule="evenodd" clip-rule="evenodd" d="M59.9178 59.5655L61.7548 57.8288C60.5247 56.2976 59.4 55.0859 57.3461 52.8857C57.9139 52.0508 57.2125 50.0468 57.4797 47.7757C57.8925 46.3082 58.7932 45.5339 60.4522 44.8366C62.1556 44.5694 63.0615 44.297 63.2243 43.8681C63.2243 43.7345 61.7548 44.3691 61.7214 43.7679C61.7997 42.5196 63.2911 42.2983 64.8275 42.5989C66.3638 42.8995 63.7253 41.5636 63.7253 41.5636C63.6702 41.0772 64.6939 40.4948 64.5603 40.2944C64.4267 40.094 63.8164 40.7286 63.7253 40.5282C63.5583 40.1608 64.5603 39.1588 64.4601 38.9585C64.2193 38.4768 61.9886 41.8975 61.7214 41.7974C61.4339 41.6896 61.8884 41.1628 61.7882 41.0292C61.4336 40.5565 58.8825 45.9722 57.5799 45.7718C56.8836 45.2783 59.6173 42.0979 61.2872 40.5282C61.4578 40.5299 64.3731 38.4982 63.9591 38.3239C63.2577 38.1235 62.4722 38.8239 62.0888 38.5911C61.1536 38.0233 63.9322 35.6655 63.7921 35.5184C63.2243 34.9222 62.5366 36.0531 62.3894 35.9192C62.2421 35.7852 62.3952 35.6063 62.1222 35.485C61.3874 35.1584 59.8844 39.593 59.476 39.4594C59.2947 39.7081 59.1555 39.8249 59.0829 39.7266C58.5151 38.9585 60.8864 36.0528 60.9532 35.8858C61.02 35.7188 60.686 35.5852 60.5524 35.485C60.4188 35.3848 60.7194 34.316 60.5524 34.1824C60.3854 34.0488 60.3186 34.3494 60.0514 34.1824C59.7842 34.0154 60.9198 31.1766 59.7508 31.1766C59.2165 31.1766 59.1163 32.4791 58.5485 32.4791C58.2813 32.4791 57.8956 30.1842 57.5799 30.3416C57.2642 30.499 57.1433 30.6422 56.9119 31.1766C56.6806 31.7109 57.9807 33.4644 57.4797 33.8818C56.9787 34.2993 56.6486 33.1103 56.244 33.1471C55.7658 33.1906 56.2778 35.2004 56.5372 36.6539C57.0313 37.5617 57.1308 38.1933 56.5446 38.1235C55.4758 37.9962 56.0875 36.1864 54.574 35.485C53.8192 35.1352 54.2804 36.6954 55.3107 38.0567C55.9839 38.5338 56.5109 39.0675 56.8451 39.5006C57.2311 40.4006 57.1791 42.4653 56.6447 42.5655C55.7764 42.6657 55.91 40.4948 55.1418 40.2276C54.712 40.0781 54.3736 40.6618 54.1064 40.6952C53.8392 40.7286 52.7705 40.3612 52.6369 40.2944C52.5033 40.2276 52.1359 39.7934 51.7351 40.2944C51.2299 40.926 52.3697 40.6952 53.4385 41.5302C53.6163 41.6369 53.9528 42.0324 54.3338 42.5655C54.908 44.0685 56.6781 45.5714 56.1104 46.9408C55.8711 47.5179 55.5426 45.538 54.8746 45.4712C53.1713 45.3376 54.3338 44.536 52.0023 43.5341C51.4345 43.0999 51.0003 41.9977 50.2656 42.4319C49.5647 42.8461 50.1385 43.2365 50.7753 43.8681C51.1005 43.9349 51.334 44.4553 51.5347 44.8366C50.7331 45.5714 51.1673 45.538 51.7351 46.1058C52.575 46.2551 52.585 46.3978 52.4365 46.6736C53.572 48.7443 55.6762 45.9054 56.0102 51.5832C55.91 51.65 51.5347 47.0744 47.7272 43.9683C47.627 43.8865 47.3599 42.2983 47.3599 42.2983C46.5147 41.244 46.9417 40.4831 48.0612 39.0587C48.629 38.9251 48.1614 38.7581 48.8294 37.9899C48.1948 37.5557 48.1733 37.0925 48.8294 36.0194C49.1153 35.5518 50.1693 34.3514 49.8314 34.1824C48.8962 33.7149 49.0966 36.1864 48.128 36.1864C47.1595 36.0194 51.4011 29.206 49.2636 27.8701C48.9296 27.7031 48.1027 28.7768 48.0946 30.1746C47.794 31.3769 47.4935 32.6461 46.9257 32.6127C45.8787 32.5511 47.4267 28.8386 45.3225 27.2355C44.8215 26.8538 45.0887 28.7485 44.354 29.0056C43.6192 29.2628 42.3166 26.8013 41.8824 27.0351C41.4482 27.2689 42.1496 28.0037 41.849 28.1373C41.5484 28.2709 41.24 28.0037 41.0475 28.4713C40.8137 29.039 43.334 30.0076 43.2852 30.6422C43.2646 30.9094 43.686 31.0764 43.3186 31.21C42.9512 31.3435 41.7483 30.8299 41.5484 31.1098C41.2145 31.5773 44.5877 32.6127 44.8883 35.2512C44.9302 35.6186 43.6526 33.9152 43.2852 34.2826C42.9178 34.65 43.8196 35.485 43.8196 35.485C45.3131 36.8475 45.3277 37.5234 45.7901 38.8583C46.0062 39.2662 46.0744 39.7206 46.1575 40.6952C46.3648 41.4217 46.628 42.7237 46.4581 42.8661C46.2882 43.0085 41.9876 39.4882 41.849 39.3258C40.4797 38.6913 38.0082 36.6873 37.741 36.2866C37.3466 36.0181 37.2066 35.6854 36.7056 35.4778C34.6294 33.5862 34.7066 31.5374 34.5086 28.2375C34.3493 27.6218 34.2357 27.2355 34.1673 27.2355C33.8667 27.2355 33.9001 27.8701 33.5327 27.7365C33.1653 27.6029 33.0985 26.0999 32.9315 25.3652C32.7873 24.7306 32.2635 23.1275 32.0298 23.1275C31.796 23.1275 31.9344 26.5341 30.8274 25.098C29.7204 23.6618 29.8442 21.0637 29.5582 21.3573C28.3225 22.6265 29.9134 26.0142 30.6604 27.3691C34.5086 34.3494 28.6565 27.2355 28.6565 27.2355C27.7233 26.2962 27.4773 25.6729 27.3205 24.4634C27.2391 22.1435 26.2517 20.2552 25.7174 19.3534C25.2254 16.7933 24.181 15.6795 23.6132 15.4791C22.9119 15.4791 24.4148 19.3534 23.7802 21.3239C23.2458 21.5243 23.0495 20.04 22.9119 17.9841C22.7871 17.1226 22.6726 16.7257 22.3775 16.1805C21.3784 15.9365 21.3245 16.648 21.2085 17.8839C21.7095 21.2237 22.3706 22.1825 21.8097 22.5263C21.2298 22.8817 20.3401 20.8597 19.6388 20.322C18.6368 19.5538 17.5088 18.8169 16.5661 19.2532C16.2657 19.3922 18.3362 19.8878 18.737 21.1569C16.7282 20.9988 15.1035 20.7521 15.3971 21.3239C15.3342 21.7983 15.9957 21.8212 17.234 22.1589C18.3362 22.4595 18.6351 22.853 18.8372 23.3946C18.3836 23.6769 17.1672 23.4948 16.5661 23.6618C16.6996 24.6972 19.1044 24.5302 18.737 25.6324C18.5277 25.8881 18.2584 26.0047 16.5661 25.9997C16.342 26.7372 16.6108 27.0625 17.2674 27.6029C17.2674 27.6029 18.6103 28.459 19.5386 28.872C20.1495 29.1438 20.5083 29.2589 21.1417 29.4732C22.7782 30.027 25.4836 30.542 25.4836 30.542C27.4526 30.8035 27.4964 31.1127 27.4875 31.6775C26.848 31.9174 26.3096 31.7241 25.183 31.0764C24.4148 31.0552 23.9886 31.0463 23.4462 31.1766C22.5899 30.9284 21.7322 31.1738 19.6054 32.2119C18.4383 32.1364 18.3028 32.6461 18.737 32.7463C19.1044 32.9801 20.2065 32.7129 22.3441 32.8465C23.5035 33.3004 23.73 33.3331 24.5818 33.4811C24.5818 33.4811 25.2859 33.3436 25.7508 33.6815C26.0867 33.9257 26.7496 33.77 26.8195 33.815C26.9941 33.5439 27.4274 33.732 27.8883 33.982C27.8883 33.982 29.8911 34.3729 31.128 34.7836C33.1764 35.4638 34.2922 36.0159 36.1044 37.1883C36.7056 38.0233 36.8058 37.4889 37.3736 38.0233C38.4694 38.0666 39.4443 39.6598 39.5111 40.0606C39.0601 40.0432 38.8316 40.0419 38.6761 40.1608C38.7763 41.4968 41.4816 41.6971 40.7135 43.0999C40.1457 43.6009 39.2619 42.5137 38.6761 41.764C37.741 40.567 37.6247 39.3714 36.8726 38.7247C35.3696 39.6598 34.2341 37.6893 33.7999 37.8563C33.3657 38.0233 34.1339 38.4575 33.1987 38.9585C33.3696 39.2425 33.654 39.4507 34.4345 39.8936C37.4738 40.762 37.574 42.2267 37.3736 42.3317C36.6722 42.6991 35.2801 42.142 33.7331 40.4614C33.3191 39.8465 33.034 39.629 32.2969 39.7934C32.1454 40.3863 31.9295 40.4614 31.0612 40.4614C30.8942 41.764 28.1122 39.9938 27.8883 40.6284C27.6643 41.263 29.2577 41.43 29.2242 41.597C29.1908 41.7639 27.7574 41.6135 27.6211 42.1313C27.4541 42.7659 29.7419 42.3985 29.792 42.5989C29.8421 42.7993 27.8019 43.3 28.2223 43.8347C28.6426 44.3693 30.0592 43.7345 30.5268 43.6009C31.295 42.9997 32.2402 42.8158 32.3637 42.9997C33.1912 42.9702 33.2461 43.2187 32.7645 44.0351C32.8428 44.2398 32.8458 44.3515 32.6643 44.536C32.6643 44.536 30.794 45.2708 30.6938 45.705C30.4599 46.7186 33.9001 45.0036 33.9001 45.0036C33.9001 45.0036 37.3068 42.9997 37.24 43.8347C37.1548 44.8993 34.8687 44.7698 34.8352 45.2374C34.8018 45.705 35.5366 45.6716 35.6034 45.872C35.6702 46.0724 33.7331 47.8425 34.1005 48.1765C34.6148 48.6441 36.6054 46.2728 36.6054 46.2728C37.2062 45.6013 37.6128 45.2924 38.6427 45.037C40.2175 44.736 40.818 44.7808 41.4482 45.2374C41.6152 45.3584 38.5759 47.1077 38.4757 47.1745C38.7114 47.3192 38.8054 47.4228 38.7429 47.7423C37.5763 48.007 37.1035 48.2227 36.5386 48.7109V49.4457C35.5865 50.2728 35.236 50.8818 35.6034 51.0154C36.5386 51.3555 39.1975 47.8629 39.6781 48.3435C40.0455 48.7109 39.6781 49.2119 39.6781 49.2119C39.738 49.3594 39.7783 49.8798 39.9119 49.9467C40.3377 49.9709 40.4503 49.8164 40.5799 49.4457C40.5799 49.4457 40.7803 48.0763 41.0141 47.3749C41.1811 46.874 42.5838 45.872 42.5838 45.872C42.5838 45.872 43.1512 45.27 43.6526 45.1038C44.015 44.9837 44.282 45.0179 44.6879 45.0036C46.7921 44.9298 46.1985 45.2142 48.5288 47.0744C49.5308 47.8742 49.2302 47.9093 50.299 48.9113C50.9954 49.4372 51.3529 49.7608 51.9021 50.4142C52.8464 51.3626 54.073 52.6185 54.0062 52.6854C53.8726 52.8857 51.8769 52.8796 51.1005 52.5851C50.3241 52.2906 49.5308 50.5812 48.6624 50.4142C48.2616 50.3372 48.8962 51.1824 47.9276 51.1156C46.9591 51.0488 46.3579 50.5812 46.0573 50.5812C45.7567 50.5813 45.7901 51.5832 45.1555 51.5832C44.3855 51.5832 43.6241 51.1614 43.2184 51.316C42.5838 51.5577 45.0335 52.9179 46.1909 52.9859C47.3264 53.0527 48.8736 53.356 48.8294 53.7207C48.6958 54.8229 44.2871 52.8857 43.519 52.6854C41.4448 52.1443 39.0769 51.316 38.075 51.984C37.7076 52.2289 39.651 52.7063 39.4109 53.1863C38.9767 54.0547 36.7149 52.0255 36.6054 52.5184C36.3382 53.7207 39.4777 53.7207 40.1123 55.2236C40.2115 55.4586 39.6113 55.6578 36.6054 55.1959C35.7124 55.2927 34.9584 55.582 34.8018 56.2924C34.6549 56.9591 36.2651 55.6849 36.6722 56.092C36.8392 56.259 36.257 57.0098 36.4384 57.2276C36.7724 57.6283 38.5975 55.9562 38.8431 56.6932C38.9767 57.094 37.8746 57.8288 38.1751 58.0625C38.4757 58.2963 39.1771 57.6283 39.4777 57.9289C39.7783 58.2295 38.7763 59.2315 39.1103 59.5655C39.3107 59.7659 40.1123 59.3985 40.8805 58.9309C42.0091 58.244 42.7013 58.4899 43.7862 57.9958C45.0219 57.4329 46.2243 55.591 47.293 55.6244C49.0969 55.6808 47.5936 56.7934 47.4935 56.8602C46.9873 57.1978 46.5729 57.2732 46.1575 57.6618C45.1221 58.6303 44.0199 59.6991 44.4541 60.0665C44.6545 60.236 45.2223 60.003 45.5229 59.7325C46.1909 59.1313 46.5063 58.4108 47.3599 57.8288C48.0946 57.3278 48.7261 56.9276 49.5308 56.259C50.3043 55.6163 50.5966 55.0923 51.4011 54.4889C51.9355 54.0881 52.292 53.7909 52.9709 53.7207C53.9394 53.6205 55.075 53.7875 55.075 53.7875C57.12 56.0075 58.2014 57.2676 59.9178 59.5655ZM45.8235 44.4692C43.9531 42.769 41.014 40.3612 40.9138 40.4614C40.8137 40.5616 41.6696 42.0173 42.4168 42.7993C43.853 44.3022 46.0807 44.703 45.8235 44.4692Z" fill="#778E11"/>
<path fill-rule="evenodd" clip-rule="evenodd" d="M59.9178 59.5655L61.7548 57.8288C60.5247 56.2976 59.4 55.0859 57.3461 52.8857C57.9139 52.0508 57.2125 50.0468 57.4797 47.7757C57.8925 46.3082 58.7932 45.5339 60.4522 44.8366C62.1556 44.5694 63.0615 44.297 63.2243 43.8681C63.2243 43.7345 61.7548 44.3691 61.7214 43.7679C61.7997 42.5196 63.2911 42.2983 64.8275 42.5989C66.3638 42.8995 63.7253 41.5636 63.7253 41.5636C63.6702 41.0772 64.6939 40.4948 64.5603 40.2944C64.4267 40.094 63.8164 40.7286 63.7253 40.5282C63.5583 40.1608 64.5603 39.1588 64.4601 38.9585C64.2193 38.4768 61.9886 41.8975 61.7214 41.7974C61.4339 41.6896 61.8884 41.1628 61.7882 41.0292C61.4336 40.5565 58.8825 45.9722 57.5799 45.7718C56.8836 45.2783 59.6173 42.0979 61.2872 40.5282C61.4578 40.5299 64.3731 38.4982 63.9591 38.3239C63.2577 38.1235 62.4722 38.8239 62.0888 38.5911C61.1536 38.0233 63.9322 35.6655 63.7921 35.5184C63.2243 34.9222 62.5366 36.0531 62.3894 35.9192C62.2421 35.7852 62.3952 35.6063 62.1222 35.485C61.3874 35.1584 59.8844 39.593 59.476 39.4594C59.2947 39.7081 59.1555 39.8249 59.0829 39.7266C58.5151 38.9585 60.8864 36.0528 60.9532 35.8858C61.02 35.7188 60.686 35.5852 60.5524 35.485C60.4188 35.3848 60.7194 34.316 60.5524 34.1824C60.3854 34.0488 60.3186 34.3494 60.0514 34.1824C59.7842 34.0154 60.9198 31.1766 59.7508 31.1766C59.2165 31.1766 59.1163 32.4791 58.5485 32.4791C58.2813 32.4791 57.8956 30.1842 57.5799 30.3416C57.2642 30.499 57.1433 30.6422 56.9119 31.1766C56.6806 31.7109 57.9807 33.4644 57.4797 33.8818C56.9787 34.2993 56.6486 33.1103 56.244 33.1471C55.7658 33.1906 56.2778 35.2004 56.5372 36.6539C57.0313 37.5617 57.1308 38.1933 56.5446 38.1235C55.4758 37.9962 56.0875 36.1864 54.574 35.485C53.8192 35.1352 54.2804 36.6954 55.3107 38.0567C55.9839 38.5338 56.5109 39.0675 56.8451 39.5006C57.2311 40.4006 57.1791 42.4653 56.6447 42.5655C55.7764 42.6657 55.91 40.4948 55.1418 40.2276C54.712 40.0781 54.3736 40.6618 54.1064 40.6952C53.8392 40.7286 52.7705 40.3612 52.6369 40.2944C52.5033 40.2276 52.1359 39.7934 51.7351 40.2944C51.2299 40.926 52.3697 40.6952 53.4385 41.5302C53.6163 41.6369 53.9528 42.0324 54.3338 42.5655C54.908 44.0685 56.6781 45.5714 56.1104 46.9408C55.8711 47.5179 55.5426 45.538 54.8746 45.4712C53.1713 45.3376 54.3338 44.536 52.0023 43.5341C51.4345 43.0999 51.0003 41.9977 50.2656 42.4319C49.5647 42.8461 50.1385 43.2365 50.7753 43.8681C51.1005 43.9349 51.334 44.4553 51.5347 44.8366C50.7331 45.5714 51.1673 45.538 51.7351 46.1058C52.575 46.2551 52.585 46.3978 52.4365 46.6736C53.572 48.7443 55.6762 45.9054 56.0102 51.5832C55.91 51.65 51.5347 47.0744 47.7272 43.9683C47.627 43.8865 47.3599 42.2983 47.3599 42.2983C46.5147 41.244 46.9417 40.4831 48.0612 39.0587C48.629 38.9251 48.1614 38.7581 48.8294 37.9899C48.1948 37.5557 48.1733 37.0925 48.8294 36.0194C49.1153 35.5518 50.1693 34.3514 49.8314 34.1824C48.8962 33.7149 49.0966 36.1864 48.128 36.1864C47.1595 36.0194 51.4011 29.206 49.2636 27.8701C48.9296 27.7031 48.1027 28.7768 48.0946 30.1746C47.794 31.3769 47.4935 32.6461 46.9257 32.6127C45.8787 32.5511 47.4267 28.8386 45.3225 27.2355C44.8215 26.8538 45.0887 28.7485 44.354 29.0056C43.6192 29.2628 42.3166 26.8013 41.8824 27.0351C41.4482 27.2689 42.1496 28.0037 41.849 28.1373C41.5484 28.2709 41.24 28.0037 41.0475 28.4713C40.8137 29.039 43.334 30.0076 43.2852 30.6422C43.2646 30.9094 43.686 31.0764 43.3186 31.21C42.9512 31.3435 41.7483 30.8299 41.5484 31.1098C41.2145 31.5773 44.5877 32.6127 44.8883 35.2512C44.9302 35.6186 43.6526 33.9152 43.2852 34.2826C42.9178 34.65 43.8196 35.485 43.8196 35.485C45.3131 36.8475 45.3277 37.5234 45.7901 38.8583C46.0062 39.2662 46.0744 39.7206 46.1575 40.6952C46.3648 41.4217 46.628 42.7237 46.4581 42.8661C46.2882 43.0085 41.9876 39.4882 41.849 39.3258C40.4797 38.6913 38.0082 36.6873 37.741 36.2866C37.3466 36.0181 37.2066 35.6854 36.7056 35.4778C34.6294 33.5862 34.7066 31.5374 34.5086 28.2375C34.3493 27.6218 34.2357 27.2355 34.1673 27.2355C33.8667 27.2355 33.9001 27.8701 33.5327 27.7365C33.1653 27.6029 33.0985 26.0999 32.9315 25.3652C32.7873 24.7306 32.2635 23.1275 32.0298 23.1275C31.796 23.1275 31.9344 26.5341 30.8274 25.098C29.7204 23.6618 29.8442 21.0637 29.5582 21.3573C28.3225 22.6265 29.9134 26.0142 30.6604 27.3691C34.5086 34.3494 28.6565 27.2355 28.6565 27.2355C27.7233 26.2962 27.4773 25.6729 27.3205 24.4634C27.2391 22.1435 26.2517 20.2552 25.7174 19.3534C25.2254 16.7933 24.181 15.6795 23.6132 15.4791C22.9119 15.4791 24.4148 19.3534 23.7802 21.3239C23.2458 21.5243 23.0495 20.04 22.9119 17.9841C22.7871 17.1226 22.6726 16.7257 22.3775 16.1805C21.3784 15.9365 21.3245 16.648 21.2085 17.8839C21.7095 21.2237 22.3706 22.1825 21.8097 22.5263C21.2298 22.8817 20.3401 20.8597 19.6388 20.322C18.6368 19.5538 17.5088 18.8169 16.5661 19.2532C16.2657 19.3922 18.3362 19.8878 18.737 21.1569C16.7282 20.9988 15.1035 20.7521 15.3971 21.3239C15.3342 21.7983 15.9957 21.8212 17.234 22.1589C18.3362 22.4595 18.6351 22.853 18.8372 23.3946C18.3836 23.6769 17.1672 23.4948 16.5661 23.6618C16.6996 24.6972 19.1044 24.5302 18.737 25.6324C18.5277 25.8881 18.2584 26.0047 16.5661 25.9997C16.342 26.7372 16.6108 27.0625 17.2674 27.6029C17.2674 27.6029 18.6103 28.459 19.5386 28.872C20.1495 29.1438 20.5083 29.2589 21.1417 29.4732C22.7782 30.027 25.4836 30.542 25.4836 30.542C27.4526 30.8035 27.4964 31.1127 27.4875 31.6775C26.848 31.9174 26.3096 31.7241 25.183 31.0764C24.4148 31.0552 23.9886 31.0463 23.4462 31.1766C22.5899 30.9284 21.7322 31.1738 19.6054 32.2119C18.4383 32.1364 18.3028 32.6461 18.737 32.7463C19.1044 32.9801 20.2065 32.7129 22.3441 32.8465C23.5035 33.3004 23.73 33.3331 24.5818 33.4811C24.5818 33.4811 25.2859 33.3436 25.7508 33.6815C26.0867 33.9257 26.7496 33.77 26.8195 33.815C26.9941 33.5439 27.4274 33.732 27.8883 33.982C27.8883 33.982 29.8911 34.3729 31.128 34.7836C33.1764 35.4638 34.2922 36.0159 36.1044 37.1883C36.7056 38.0233 36.8058 37.4889 37.3736 38.0233C38.4694 38.0666 39.4443 39.6598 39.5111 40.0606C39.0601 40.0432 38.8316 40.0419 38.6761 40.1608C38.7763 41.4968 41.4816 41.6971 40.7135 43.0999C40.1457 43.6009 39.2619 42.5137 38.6761 41.764C37.741 40.567 37.6247 39.3714 36.8726 38.7247C35.3696 39.6598 34.2341 37.6893 33.7999 37.8563C33.3657 38.0233 34.1339 38.4575 33.1987 38.9585C33.3696 39.2425 33.654 39.4507 34.4345 39.8936C37.4738 40.762 37.574 42.2267 37.3736 42.3317C36.6722 42.6991 35.2801 42.142 33.7331 40.4614C33.3191 39.8465 33.034 39.629 32.2969 39.7934C32.1454 40.3863 31.9295 40.4614 31.0612 40.4614C30.8942 41.764 28.1122 39.9938 27.8883 40.6284C27.6643 41.263 29.2577 41.43 29.2242 41.597C29.1908 41.7639 27.7574 41.6135 27.6211 42.1313C27.4541 42.7659 29.7419 42.3985 29.792 42.5989C29.8421 42.7993 27.8019 43.3 28.2223 43.8347C28.6426 44.3693 30.0592 43.7345 30.5268 43.6009C31.295 42.9997 32.2402 42.8158 32.3637 42.9997C33.1912 42.9702 33.2461 43.2187 32.7645 44.0351C32.8428 44.2398 32.8458 44.3515 32.6643 44.536C32.6643 44.536 30.794 45.2708 30.6938 45.705C30.4599 46.7186 33.9001 45.0036 33.9001 45.0036C33.9001 45.0036 37.3068 42.9997 37.24 43.8347C37.1548 44.8993 34.8687 44.7698 34.8352 45.2374C34.8018 45.705 35.5366 45.6716 35.6034 45.872C35.6702 46.0724 33.7331 47.8425 34.1005 48.1765C34.6148 48.6441 36.6054 46.2728 36.6054 46.2728C37.2062 45.6013 37.6128 45.2924 38.6427 45.037C40.2175 44.736 40.818 44.7808 41.4482 45.2374C41.6152 45.3584 38.5759 47.1077 38.4757 47.1745C38.7114 47.3192 38.8054 47.4228 38.7429 47.7423C37.5763 48.007 37.1035 48.2227 36.5386 48.7109V49.4457C35.5865 50.2728 35.236 50.8818 35.6034 51.0154C36.5386 51.3555 39.1975 47.8629 39.6781 48.3435C40.0455 48.7109 39.6781 49.2119 39.6781 49.2119C39.738 49.3594 39.7783 49.8798 39.9119 49.9467C40.3377 49.9709 40.4503 49.8164 40.5799 49.4457C40.5799 49.4457 40.7803 48.0763 41.0141 47.3749C41.1811 46.874 42.5838 45.872 42.5838 45.872C42.5838 45.872 43.1512 45.27 43.6526 45.1038C44.015 44.9837 44.282 45.0179 44.6879 45.0036C46.7921 44.9298 46.1985 45.2142 48.5288 47.0744C49.5308 47.8742 49.2302 47.9093 50.299 48.9113C50.9954 49.4372 51.3529 49.7608 51.9021 50.4142C52.8464 51.3626 54.073 52.6185 54.0062 52.6854C53.8726 52.8857 51.8769 52.8796 51.1005 52.5851C50.3241 52.2906 49.5308 50.5812 48.6624 50.4142C48.2616 50.3372 48.8962 51.1824 47.9276 51.1156C46.9591 51.0488 46.3579 50.5812 46.0573 50.5812C45.7567 50.5813 45.7901 51.5832 45.1555 51.5832C44.3855 51.5832 43.6241 51.1614 43.2184 51.316C42.5838 51.5577 45.0335 52.9179 46.1909 52.9859C47.3264 53.0527 48.8736 53.356 48.8294 53.7207C48.6958 54.8229 44.2871 52.8857 43.519 52.6854C41.4448 52.1443 39.0769 51.316 38.075 51.984C37.7076 52.2289 39.651 52.7063 39.4109 53.1863C38.9767 54.0547 36.7149 52.0255 36.6054 52.5184C36.3382 53.7207 39.4777 53.7207 40.1123 55.2236C40.2115 55.4586 39.6113 55.6578 36.6054 55.1959C35.7124 55.2927 34.9584 55.582 34.8018 56.2924C34.6549 56.9591 36.2651 55.6849 36.6722 56.092C36.8392 56.259 36.257 57.0098 36.4384 57.2276C36.7724 57.6283 38.5975 55.9562 38.8431 56.6932C38.9767 57.094 37.8746 57.8288 38.1751 58.0625C38.4757 58.2963 39.1771 57.6283 39.4777 57.9289C39.7783 58.2295 38.7763 59.2315 39.1103 59.5655C39.3107 59.7659 40.1123 59.3985 40.8805 58.9309C42.0091 58.244 42.7013 58.4899 43.7862 57.9958C45.0219 57.4329 46.2243 55.591 47.293 55.6244C49.0969 55.6808 47.5936 56.7934 47.4935 56.8602C46.9873 57.1978 46.5729 57.2732 46.1575 57.6618C45.1221 58.6303 44.0199 59.6991 44.4541 60.0665C44.6545 60.236 45.2223 60.003 45.5229 59.7325C46.1909 59.1313 46.5063 58.4108 47.3599 57.8288C48.0946 57.3278 48.7261 56.9276 49.5308 56.259C50.3043 55.6163 50.5966 55.0923 51.4011 54.4889C51.9355 54.0881 52.292 53.7909 52.9709 53.7207C53.9394 53.6205 55.075 53.7875 55.075 53.7875C57.12 56.0075 58.2014 57.2676 59.9178 59.5655ZM45.8235 44.4692C43.9531 42.769 41.014 40.3612 40.9138 40.4614C40.8137 40.5616 41.6696 42.0173 42.4168 42.7993C43.853 44.3022 46.0807 44.703 45.8235 44.4692Z" stroke="black" stroke-width="2" stroke-linecap="round" stroke-linejoin="round" mask="url(#path-2-outside-1_316_3291)"/>
<path d="M90.4115 64.7433C84.6001 58.3307 82.3658 55.5253 78.1208 53.3543C72.2425 51.4171 67.6749 53.3542 62.0559 57.6293C56.2574 62.041 51.7504 68.489 52.5707 74.1952C54.9102 79.5207 59.7668 82.5993 65.83 88.0224C71.3407 92.4978 73.9792 95.3034 78.989 100.013C89.1089 109.131 90.3781 110.5 106.142 122.457C107.011 122.924 108.814 124.294 115.761 129.137C116.296 129.203 119.468 131.223 120.738 132.009C126.081 135.315 130.189 136.918 131.425 137.687C132.327 138.143 133.496 138.655 134.899 139.156C136.034 139.624 137.564 140.292 137.972 140.292C139.616 140.784 140.076 140.492 140.643 139.256C140.465 138.251 140.511 137.688 140.577 136.685C139.401 132.792 138.806 130.639 136.669 126.298C135.7 124.544 135.145 123.553 134.264 121.856C133.195 120.085 126.895 110.538 122.174 103.286C118.066 98.0421 116.277 94.7934 111.319 89.2581C108.389 85.8477 106.785 84.005 103.938 80.7414C98.16 73.928 92.8162 67.3967 90.4115 64.7433Z" fill="#FD8C25"/>
<path d="M90.4107 64.7432C84.5992 58.3306 82.3649 55.5252 78.1199 53.3542C73.3835 51.7934 69.498 52.7478 65.2278 55.4138C72.4239 60.1061 75.9284 63.0243 81.8939 68.3837C93.6169 77.0006 86.1355 76.0988 97.1572 87.1538C101.829 90.0093 103.57 92.2638 108.379 96.8395L118.299 105.724C125.529 112.199 132.159 118.816 134.263 121.855C133.195 120.085 126.894 110.537 122.173 103.285C118.065 98.0418 116.276 94.7931 111.318 89.2579C108.388 85.8475 106.785 84.0048 103.937 80.7413C98.1591 73.9279 92.8153 67.3966 90.4107 64.7432Z" fill="#FFB346"/>
<path d="M56.0444 65.7781C55.7062 65.1738 55.4752 65.0145 54.9437 65.2438L57.9566 61.3361C61.1558 63.1015 62.7939 64.2358 65.73 66.2457C67.8656 67.9251 69.8812 69.7364 72.009 71.4226L76.9186 75.7978L81.7281 82.01C85.2016 87.788 90.3784 90.3597 97.2585 94.9688C104.172 100.346 98.0601 97.1063 105.408 103.085C110.864 108.062 114.074 110.747 119.836 115.509C119.836 115.509 125.902 120.633 129.722 123.992C133.512 127.325 139.324 132.643 139.324 132.643C139.739 133.88 140.112 135.146 140.577 136.684L140.528 138.287L140.203 138.052L140.202 138.051C134.669 134.046 128.855 129.838 126.85 128.167C123.32 125.227 121.344 123.576 117.999 120.552C110.685 115.309 110.284 114.407 102.569 107.293C100.006 105.087 98.6204 103.821 96.29 101.482C94.7432 99.8113 93.7954 98.933 92.0483 97.4069C90.3255 95.8667 89.4089 95.0362 87.8401 93.5994L82.4294 88.4894C79.3568 86.3185 78.956 85.0159 77.8872 84.5817C74.1265 81.7073 71.9428 80.1528 67.9344 77.4678C63.5591 73.5601 60.515 70.7078 56.0444 65.7781Z" fill="#FF973A"/>
<path d="M137.971 140.291C139.616 140.782 140.075 140.491 140.643 139.255C140.578 138.888 140.543 138.579 140.528 138.287L140.202 138.051C134.669 134.046 128.855 129.837 126.85 128.167C123.319 125.226 121.344 123.576 117.999 120.552C110.684 115.308 110.284 114.407 102.569 107.293C100.006 105.086 98.62 103.82 96.2896 101.481C94.7427 99.811 93.795 98.9326 92.0479 97.4065C90.3251 95.8663 89.4085 95.0359 87.8397 93.5991L82.429 88.4891C79.3563 86.3181 78.9556 85.0156 77.8868 84.5814C74.1261 81.707 71.9424 80.1525 67.9339 77.4674C63.5587 73.5598 60.5146 70.7075 56.0439 65.7778C55.7058 65.1735 55.4748 65.0142 54.9433 65.2435C53.1217 68.1739 52.1517 71.2808 52.5705 74.1944C54.91 79.5198 59.7666 82.5984 65.8299 88.0215C71.3406 92.4969 73.9791 95.3024 78.9889 100.012C89.1088 109.13 90.3779 110.499 106.142 122.456C107.011 122.923 108.814 124.293 115.761 129.135C116.295 129.202 119.468 131.222 120.738 132.008C126.081 135.314 130.189 136.917 131.425 137.686C132.326 138.142 133.496 138.654 134.899 139.155C136.034 139.623 137.564 140.291 137.971 140.291Z" fill="#FD6B15"/>
<path d="M78.3484 52.9091C78.3255 52.8974 78.3017 52.8874 78.2773 52.8794C75.244 51.8798 72.5275 51.8764 69.8469 52.6834C67.1827 53.4856 64.5796 55.0809 61.7531 57.2314C58.8137 59.4678 56.1913 62.2274 54.404 65.167C52.6193 68.1025 51.6434 71.259 52.0757 74.2664C52.0822 74.3112 52.0947 74.3549 52.1129 74.3963C53.3214 77.1474 55.175 79.3028 57.4628 81.4378C58.6055 82.5042 59.8634 83.5715 61.2069 84.7051C61.2988 84.7826 61.3911 84.8605 61.4838 84.9387C62.7491 86.0059 64.0904 87.1372 65.4967 88.3951C65.5026 88.4004 65.5086 88.4055 65.5148 88.4105C69.6063 91.7334 72.1006 94.1249 75.1847 97.0818C76.2403 98.0939 77.3651 99.1723 78.6466 100.377L78.6465 100.377L78.6544 100.384C79.5547 101.195 80.3852 101.945 81.1621 102.647C89.1236 109.837 91.4645 111.951 105.84 122.855C105.861 122.871 105.883 122.885 105.905 122.897C106.306 123.113 106.944 123.55 108.384 124.565C108.679 124.772 109.007 125.004 109.371 125.261C110.771 126.25 112.719 127.625 115.475 129.547C115.542 129.593 115.619 129.623 115.699 129.633C115.694 129.632 115.695 129.632 115.703 129.635C115.721 129.641 115.773 129.659 115.871 129.703C115.996 129.759 116.157 129.84 116.349 129.943C116.731 130.149 117.209 130.427 117.717 130.732C118.459 131.178 119.249 131.67 119.87 132.058C120.098 132.2 120.303 132.328 120.475 132.434C123.165 134.098 125.543 135.334 127.401 136.248C128.044 136.564 128.627 136.844 129.136 137.087C129.362 137.195 129.573 137.296 129.768 137.391C130.416 137.703 130.879 137.936 131.161 138.111C131.174 138.119 131.186 138.126 131.199 138.133C132.118 138.599 133.303 139.117 134.719 139.623C134.885 139.692 135.062 139.765 135.243 139.841C135.669 140.018 136.121 140.206 136.526 140.365C136.817 140.479 137.093 140.582 137.327 140.656C137.507 140.714 137.711 140.772 137.885 140.788C138.685 141.022 139.35 141.118 139.906 140.882C140.49 140.635 140.813 140.085 141.098 139.465C141.14 139.373 141.153 139.269 141.136 139.169C140.975 138.261 141.008 137.756 141.069 136.819L141.075 136.717C141.079 136.657 141.072 136.597 141.055 136.54C140.984 136.303 140.914 136.072 140.846 135.847C139.799 132.37 139.143 130.192 137.118 126.077C137.114 126.07 137.11 126.063 137.107 126.056C136.997 125.857 136.893 125.669 136.793 125.488C136.008 124.069 135.486 123.125 134.708 121.625C134.703 121.616 134.698 121.606 134.692 121.597C133.994 120.441 131.088 116.002 127.844 111.048C126.094 108.374 124.245 105.551 122.593 103.013C122.585 103.001 122.576 102.989 122.567 102.977C121.086 101.086 119.898 99.4422 118.747 97.8476C116.743 95.0728 114.847 92.4474 111.695 88.9285C108.767 85.52 107.162 83.6765 104.317 80.4153C102.051 77.743 99.8472 75.1089 97.8606 72.7343C94.7943 69.069 92.2453 66.0221 90.782 64.4075C90.1233 63.6806 89.5096 62.999 88.9329 62.3583C84.4502 57.3784 82.2003 54.879 78.3484 52.9091Z" stroke="black" stroke-linecap="round" stroke-linejoin="round"/>
<path d="M70.1381 62.0046C64.2599 66.2128 62.0221 71.2561 62.0221 71.2561C62.0221 71.2561 63.8257 67.6824 70.472 62.7059C75.0283 59.2944 82.696 58.0301 82.696 58.0301C82.696 58.0301 75.0377 58.4968 70.1381 62.0046Z" fill="#DA570F"/>
<path d="M66.7648 72.926C61.9219 77.6687 60.0182 82.5449 60.4524 82.9457C60.8198 82.7119 62.0882 77.875 67.0988 73.26C70.9062 69.7531 77.1518 66.3464 77.1518 66.3464C77.1956 66.1106 70.9895 68.7887 66.7648 72.926Z" fill="#DA570F"/>
<path d="M79.2893 69.1185C75.4957 71.4837 71.1143 76.5476 71.3404 76.7335C74.158 73.7053 75.7643 71.935 79.4897 69.6529C83.2151 67.3708 88.3766 65.6784 88.5408 65.2777C88.6489 65.0139 83.0105 66.7985 79.2893 69.1185Z" fill="#DA570F"/>
<path d="M72.7098 79.9732C69.0083 83.814 68.0673 85.8848 68.1675 86.0518C68.2127 86.127 68.3412 86.1469 68.4183 86.0852C68.8355 85.7512 69.4544 84.2586 72.7098 80.875C75.8834 77.5762 81.4137 72.9857 81.3601 72.8592C81.3064 72.7327 76.9814 75.5407 72.7098 79.9732Z" fill="#DA570F"/>
<path d="M84.2657 78.6706C80.7768 81.11 76.7041 86.2114 76.9848 86.4526C77.419 86.3524 78.6258 83.23 84.5329 79.205C88.1488 76.7412 94.085 74.3956 94.252 74.0616C94.2452 73.8364 87.9231 76.1135 84.2657 78.6706Z" fill="#DA570F"/>
<path d="M85.5349 95.4035C85.2209 95.4035 88.573 91.5725 91.4799 89.6923C95.6636 86.9862 101.539 84.8737 102.178 84.9134C102.193 84.9105 102.201 84.9114 102.201 84.9162C102.194 84.9149 102.186 84.9139 102.178 84.9134C101.759 84.9939 95.807 88.013 91.9809 90.2935C86.9376 93.2994 86.1361 95.4035 85.5349 95.4035Z" fill="#DA570F"/>
<path d="M93.3168 101.482C91.2927 103.327 89.1086 105.924 89.3424 106.091C89.9769 105.958 91.0123 103.586 93.5506 101.816C95.6739 100.335 99.3162 98.0327 99.5624 97.6746C98.8944 97.8416 95.7642 99.251 93.3168 101.482Z" fill="#DA570F"/>
<path d="M101.667 108.696C101.299 108.529 104.461 104.547 106.977 102.451C109.77 100.123 114.608 97.6703 114.85 97.6702C114.859 97.6676 114.862 97.6691 114.859 97.6746C114.859 97.6716 114.856 97.6702 114.85 97.6702C114.611 97.7345 110.416 100.352 107.344 102.985C104.925 105.06 101.834 108.696 101.667 108.696Z" fill="#DA570F"/>
<path d="M115.026 109.064C112.388 110.533 111.419 112.637 111.419 112.637C111.419 112.637 113.623 110.466 115.327 109.531C117.374 108.407 120.537 106.592 120.537 106.592C120.537 106.592 117.398 107.742 115.026 109.064Z" fill="#DA570F"/>
<path d="M118.366 119.618C116.388 121.398 114.024 124.861 114.224 124.861C114.358 124.995 116.329 122.223 118.733 120.052C121.138 117.881 126.081 115.543 126.415 115.209C126.414 115.087 121.073 117.181 118.366 119.618Z" fill="#DA570F"/>
<path d="M127.885 127.433C126.869 128.228 125.036 130.168 125.146 130.205C125.401 130.131 127.066 128.732 128.285 127.8C130.023 126.736 132.126 125.262 132.393 124.962C132.534 124.783 129.63 126.067 127.885 127.433Z" fill="#DA570F"/>
<path d="M88.2412 72.1568C86.0703 72.9917 84.367 74.5615 83.8326 74.7285C83.5654 73.9269 84.5339 73.8601 84.9681 73.0585C85.6044 72.7284 85.9104 72.5021 86.4042 72.0566C87.7961 71.5353 88.2078 71.0212 88.6086 70.6204C88.809 70.42 89.4436 70.6204 89.31 71.1214C88.9273 71.7233 88.7213 72.1095 88.2412 72.1568Z" fill="#F9B76C"/>
<path d="M84.2668 84.7481C81.8621 87.8876 81.0732 88.0212 81.3277 88.2884C81.4759 88.444 82.4533 87.7669 83.2314 86.5517C84.3299 85.294 84.8397 84.7503 85.2019 84.6145C86.316 83.6835 86.9556 83.2966 88.1076 82.7108C89.6081 81.8139 90.2623 81.2471 91.4141 80.1057C92.0474 79.3244 91.5966 78.6715 90.9799 79.1037C91.0485 79.5379 90.6125 80.1391 90.2117 80.5399C89.9446 80.6067 89.709 80.7104 89.477 80.7737C88.2662 80.9288 87.7295 81.0162 86.9387 81.8424C85.8699 83.9466 85.0684 84.0802 84.2668 84.7481Z" fill="#F9B76C"/>
<path d="M81.4947 95.3356C81.7842 95.4183 81.8621 94.8346 81.8621 94.8346C81.8621 94.8346 82.6912 94.1386 83.198 93.6656C84.2 92.7304 84.2668 92.5969 84.701 92.3965C85.0047 92.1081 85.2188 91.5229 86.2707 90.8935C87.1776 90.3509 88.5013 89.0683 88.5418 89.09C89.0129 88.4834 89.3248 88.1581 89.9112 87.587C90.7527 86.8332 91.2436 86.4136 91.8149 85.6165C93.2511 84.8817 92.8837 84.0468 91.6479 84.9485C90.4914 85.7306 89.9144 86.1697 88.8424 86.9525C87.5733 87.6872 87.3729 87.6538 87.2059 88.6892C86.7431 89.3283 86.4794 89.683 85.7029 90.2923C84.8265 91.0463 84.3684 91.4755 83.6656 92.2629C82.7015 93.1252 81.5949 94.2668 81.5281 94.534C81.5281 94.534 81.0605 95.2115 81.4947 95.3356Z" fill="#F9B76C"/>
<path d="M99.6636 102.583C99.2129 102.937 98.5615 103.685 98.4279 103.585C98.2122 102.698 98.3866 102.234 99.7972 101.347C99.7972 101.347 100.853 100.495 101.467 99.978C102.102 99.4436 103.104 98.809 103.104 98.809C103.104 98.809 103.651 98.4129 104.005 98.1745C104.469 97.8629 104.707 97.6367 105.174 97.3395C106.041 96.7878 106.711 96.3041 107.479 96.1037C107.444 96.049 107.573 95.6759 107.78 95.6695C108.22 95.668 108.174 95.8261 108.147 96.1705L107.78 96.3375C107.594 96.4495 107.508 96.5207 107.479 96.7049C107.209 96.7385 107.137 96.8344 107.045 97.0389C106.514 97.3117 106.203 97.5494 105.642 98.0075L105.174 98.3748C105.174 98.3748 104.719 98.7875 104.44 99.0428L104.4 99.079C103.811 99.6184 103.484 99.917 102.837 100.412C102.204 100.896 101.167 101.581 101.167 101.581C100.863 101.546 100.698 101.6 100.599 101.949L99.6636 102.583Z" fill="#F9B76C"/>
<path d="M116.764 116.277C116.637 116.512 116.521 116.48 116.363 116.477C116.266 116.208 116.347 116.08 116.864 115.542C116.864 115.542 117.065 115.028 117.298 114.774C117.666 114.373 118.334 113.404 118.334 113.404C119.803 112.77 120.304 112.336 121.273 111.367C121.824 111.001 122.121 110.816 122.508 110.699C122.837 110.63 122.919 110.721 122.976 111C122.599 111.452 122.361 111.629 121.907 111.868C121.611 111.885 121.534 111.967 121.506 112.202C120.885 112.528 120.533 112.627 119.937 113.638C119.57 113.879 119.395 114.019 119.102 114.273C118.901 114.339 118.668 114.506 118.567 114.607C118.467 114.707 117.068 115.877 117.031 116.009C116.783 116.045 116.75 116.115 116.764 116.277Z" fill="#F9B76C"/>
<path d="M119.336 124.894C119.336 124.894 118.367 125.227 118.567 125.996C118.595 126.104 118.835 126.096 118.835 126.096C118.835 126.096 120.337 124.56 122.909 123.023C124.613 122.006 125.314 121.086 125.314 121.086C125.485 120.475 125.412 120.347 125.047 120.418C124.286 120.774 124.111 121.183 123.644 121.687C122.241 122.222 121.859 122.517 120.271 123.858C119.97 124.025 119.736 124.059 119.336 124.894Z" fill="#F9B76C"/>
</g>
<defs>
<filter id="filter0_dd_316_3291" x="5.96212" y="6.07915" width="144.081" height="143.839" filterUnits="userSpaceOnUse" color-interpolation-filters="sRGB">
<feFlood flood-opacity="0" result="BackgroundImageFix"/>
<feColorMatrix in="SourceAlpha" type="matrix" values="0 0 0 0 0 0 0 0 0 0 0 0 0 0 0 0 0 0 127 0" result="hardAlpha"/>
<feOffset/>
<feGaussianBlur stdDeviation="4.2"/>
<feComposite in2="hardAlpha" operator="out"/>
<feColorMatrix type="matrix" values="0 0 0 0 0.957679 0 0 0 0 1 0 0 0 0 0.77 0 0 0 1 0"/>
<feBlend mode="normal" in2="BackgroundImageFix" result="effect1_dropShadow_316_3291"/>
<feColorMatrix in="SourceAlpha" type="matrix" values="0 0 0 0 0 0 0 0 0 0 0 0 0 0 0 0 0 0 127 0" result="hardAlpha"/>
<feOffset/>
<feGaussianBlur stdDeviation="4.2"/>
<feComposite in2="hardAlpha" operator="out"/>
<feColorMatrix type="matrix" values="0 0 0 0 0.957679 0 0 0 0 1 0 0 0 0 0.77 0 0 0 1 0"/>
<feBlend mode="normal" in2="effect1_dropShadow_316_3291" result="effect2_dropShadow_316_3291"/>
<feBlend mode="normal" in="SourceGraphic" in2="effect2_dropShadow_316_3291" result="shape"/>
</filter>
</defs>
</svg>
