<svg width="425" height="210" viewBox="0 0 425 210" fill="none" xmlns="http://www.w3.org/2000/svg">
<mask id="path-1-outside-1_307_7467" maskUnits="userSpaceOnUse" x="185.3" y="125.9" width="232" height="61" fill="black">
<rect fill="white" x="185.3" y="125.9" width="232" height="61"/>
<path d="M229.9 168.9L232.2 170.6C231.267 172.6 229.533 174.5 227 176.3C224.533 178.1 222.267 179 220.2 179C216.267 179 214.3 176.933 214.3 172.8C214.3 170.867 214.8 168.567 215.8 165.9L212.1 169.7C208.5 173.367 205.367 175.833 202.7 177.1C200.1 178.367 197.533 179 195 179C192.467 179 190.533 178.3 189.2 176.9C187.933 175.433 187.3 173.433 187.3 170.9C187.3 166.233 189.1 161.633 192.7 157.1C196.3 152.5 200.9 148.767 206.5 145.9C212.1 143.033 217.7 141.567 223.3 141.5L223.5 144.8L219.3 145.7C213.233 147.033 207.867 149.7 203.2 153.7C198.6 157.7 196.3 161.7 196.3 165.7C196.3 169.633 197.9 171.6 201.1 171.6C204.1 171.6 207.8 169.5 212.2 165.3C216.6 161.1 220.267 156.167 223.2 150.5L227.4 153C223.267 161.333 221.2 166.633 221.2 168.9C221.2 169.833 221.5 170.633 222.1 171.3C222.767 171.9 223.4 172.2 224 172.2C224.667 172.2 225.1 172.167 225.3 172.1C225.5 172.033 225.7 171.967 225.9 171.9C226.1 171.767 226.333 171.6 226.6 171.4C226.933 171.2 227.2 171 227.4 170.8C227.667 170.6 228.067 170.3 228.6 169.9C229.133 169.5 229.567 169.167 229.9 168.9Z"/>
<path d="M267.626 167.5L270.426 169.6C269.759 171 268.326 172.6 266.126 174.4C263.993 176.2 261.493 177.1 258.626 177.1C254.759 177.1 252.826 175.133 252.826 171.2C252.826 168.933 253.292 166.433 254.226 163.7C255.226 160.9 256.192 158.367 257.126 156.1C258.059 153.767 258.626 152.3 258.826 151.7C257.226 153.967 254.626 156.333 251.026 158.8C247.492 161.2 244.259 162.4 241.326 162.4C236.992 162.4 234.826 159.933 234.826 155C234.826 151.8 235.692 148.267 237.426 144.4C239.226 140.533 241.092 137.833 243.026 136.3L247.426 137.9C244.292 143.7 242.726 148 242.726 150.8C242.726 153.6 244.026 155 246.626 155C249.626 155 253.059 153.333 256.926 150C260.792 146.667 263.526 142.5 265.126 137.5L270.326 140.4C263.126 153.133 259.526 161.967 259.526 166.9C259.526 169.167 260.393 170.3 262.126 170.3C263.926 170.3 265.759 169.367 267.626 167.5Z"/>
<path d="M313.531 140.1L317.431 141C317.364 141.467 316.397 143.5 314.531 147.1C312.731 150.633 310.797 155.3 308.731 161.1C306.664 166.833 305.331 172.633 304.731 178.5L298.331 178C298.331 174.333 299.497 169.6 301.831 163.8C301.231 163.733 299.997 163.7 298.131 163.7C296.331 163.7 292.997 164.133 288.131 165C284.731 172.6 283.031 179.1 283.031 184.5L276.331 183.6C276.331 178.867 278.097 173.033 281.631 166.1C278.231 166.633 274.831 167.433 271.431 168.5L270.431 164.6C270.431 164.4 272.197 163.833 275.731 162.9C279.331 161.967 281.997 161.367 283.731 161.1C289.064 148.833 292.697 141.733 294.631 139.8L298.931 141.5C298.597 142.167 297.831 143.667 296.631 146C293.631 151.8 291.597 156.333 290.531 159.6C296.331 159 299.797 158.7 300.931 158.7C302.131 158.7 303.131 158.733 303.931 158.8C308.597 148.067 311.797 141.833 313.531 140.1Z"/>
<path d="M363.561 167.3L365.661 169C364.528 171.8 362.728 174.167 360.261 176.1C357.861 178.033 355.661 179 353.661 179C351.728 179 350.194 178.333 349.061 177C347.928 175.6 347.361 173.8 347.361 171.6C347.361 169.4 347.728 166.567 348.461 163.1C345.328 168.033 341.961 171.9 338.361 174.7C334.761 177.5 331.728 178.9 329.261 178.9C325.528 178.9 323.661 176.667 323.661 172.2C323.661 167.733 325.194 161.733 328.261 154.2C331.394 146.6 333.628 142.267 334.961 141.2L339.761 143.3C337.028 147.7 334.961 152.033 333.561 156.3C332.161 160.567 331.461 163.433 331.461 164.9C331.461 166.3 331.894 167.433 332.761 168.3C333.694 169.167 334.761 169.6 335.961 169.6C338.628 169.6 341.928 167.167 345.861 162.3C349.861 157.367 353.928 150.033 358.061 140.3L363.161 142.6C363.028 143.133 361.494 147 358.561 154.2C355.694 161.4 354.261 165.733 354.261 167.2C354.261 168.6 354.561 169.667 355.161 170.4C355.828 171.133 356.461 171.5 357.061 171.5C357.728 171.5 358.228 171.467 358.561 171.4C358.894 171.333 359.228 171.2 359.561 171C359.894 170.8 360.161 170.633 360.361 170.5C360.628 170.367 360.928 170.133 361.261 169.8L361.961 169C362.161 168.867 362.428 168.6 362.761 168.2C363.161 167.733 363.428 167.433 363.561 167.3Z"/>
<path d="M412.661 167.3L414.761 169C413.628 171.8 411.828 174.167 409.361 176.1C406.961 178.033 404.761 179 402.761 179C400.828 179 399.294 178.333 398.161 177C397.028 175.6 396.461 173.8 396.461 171.6C396.461 169.4 396.828 166.567 397.561 163.1C394.428 168.033 391.061 171.9 387.461 174.7C383.861 177.5 380.828 178.9 378.361 178.9C374.628 178.9 372.761 176.667 372.761 172.2C372.761 167.733 374.294 161.733 377.361 154.2C380.494 146.6 382.728 142.267 384.061 141.2L388.861 143.3C386.128 147.7 384.061 152.033 382.661 156.3C381.261 160.567 380.561 163.433 380.561 164.9C380.561 166.3 380.994 167.433 381.861 168.3C382.794 169.167 383.861 169.6 385.061 169.6C387.728 169.6 391.028 167.167 394.961 162.3C398.961 157.367 403.028 150.033 407.161 140.3L412.261 142.6C412.128 143.133 410.594 147 407.661 154.2C404.794 161.4 403.361 165.733 403.361 167.2C403.361 168.6 403.661 169.667 404.261 170.4C404.928 171.133 405.561 171.5 406.161 171.5C406.828 171.5 407.328 171.467 407.661 171.4C407.994 171.333 408.328 171.2 408.661 171C408.994 170.8 409.261 170.633 409.461 170.5C409.728 170.367 410.028 170.133 410.361 169.8L411.161 169C411.294 168.867 411.528 168.6 411.861 168.2C412.261 167.733 412.528 167.433 412.661 167.3ZM406.861 129.2L409.861 130.8C408.528 132.867 406.794 134.7 404.661 136.3C402.594 137.9 400.528 138.7 398.461 138.7C396.394 138.7 394.228 137.933 391.961 136.4C389.694 134.8 387.861 133.2 386.461 131.6L389.661 128.9C393.128 132.3 395.961 134 398.161 134C401.561 134 404.461 132.4 406.861 129.2Z"/>
</mask>
<path d="M229.9 168.9L232.2 170.6C231.267 172.6 229.533 174.5 227 176.3C224.533 178.1 222.267 179 220.2 179C216.267 179 214.3 176.933 214.3 172.8C214.3 170.867 214.8 168.567 215.8 165.9L212.1 169.7C208.5 173.367 205.367 175.833 202.7 177.1C200.1 178.367 197.533 179 195 179C192.467 179 190.533 178.3 189.2 176.9C187.933 175.433 187.3 173.433 187.3 170.9C187.3 166.233 189.1 161.633 192.7 157.1C196.3 152.5 200.9 148.767 206.5 145.9C212.1 143.033 217.7 141.567 223.3 141.5L223.5 144.8L219.3 145.7C213.233 147.033 207.867 149.7 203.2 153.7C198.6 157.7 196.3 161.7 196.3 165.7C196.3 169.633 197.9 171.6 201.1 171.6C204.1 171.6 207.8 169.5 212.2 165.3C216.6 161.1 220.267 156.167 223.2 150.5L227.4 153C223.267 161.333 221.2 166.633 221.2 168.9C221.2 169.833 221.5 170.633 222.1 171.3C222.767 171.9 223.4 172.2 224 172.2C224.667 172.2 225.1 172.167 225.3 172.1C225.5 172.033 225.7 171.967 225.9 171.9C226.1 171.767 226.333 171.6 226.6 171.4C226.933 171.2 227.2 171 227.4 170.8C227.667 170.6 228.067 170.3 228.6 169.9C229.133 169.5 229.567 169.167 229.9 168.9Z" fill="#3F4B07"/>
<path d="M267.626 167.5L270.426 169.6C269.759 171 268.326 172.6 266.126 174.4C263.993 176.2 261.493 177.1 258.626 177.1C254.759 177.1 252.826 175.133 252.826 171.2C252.826 168.933 253.292 166.433 254.226 163.7C255.226 160.9 256.192 158.367 257.126 156.1C258.059 153.767 258.626 152.3 258.826 151.7C257.226 153.967 254.626 156.333 251.026 158.8C247.492 161.2 244.259 162.4 241.326 162.4C236.992 162.4 234.826 159.933 234.826 155C234.826 151.8 235.692 148.267 237.426 144.4C239.226 140.533 241.092 137.833 243.026 136.3L247.426 137.9C244.292 143.7 242.726 148 242.726 150.8C242.726 153.6 244.026 155 246.626 155C249.626 155 253.059 153.333 256.926 150C260.792 146.667 263.526 142.5 265.126 137.5L270.326 140.4C263.126 153.133 259.526 161.967 259.526 166.9C259.526 169.167 260.393 170.3 262.126 170.3C263.926 170.3 265.759 169.367 267.626 167.5Z" fill="#3F4B07"/>
<path d="M313.531 140.1L317.431 141C317.364 141.467 316.397 143.5 314.531 147.1C312.731 150.633 310.797 155.3 308.731 161.1C306.664 166.833 305.331 172.633 304.731 178.5L298.331 178C298.331 174.333 299.497 169.6 301.831 163.8C301.231 163.733 299.997 163.7 298.131 163.7C296.331 163.7 292.997 164.133 288.131 165C284.731 172.6 283.031 179.1 283.031 184.5L276.331 183.6C276.331 178.867 278.097 173.033 281.631 166.1C278.231 166.633 274.831 167.433 271.431 168.5L270.431 164.6C270.431 164.4 272.197 163.833 275.731 162.9C279.331 161.967 281.997 161.367 283.731 161.1C289.064 148.833 292.697 141.733 294.631 139.8L298.931 141.5C298.597 142.167 297.831 143.667 296.631 146C293.631 151.8 291.597 156.333 290.531 159.6C296.331 159 299.797 158.7 300.931 158.7C302.131 158.7 303.131 158.733 303.931 158.8C308.597 148.067 311.797 141.833 313.531 140.1Z" fill="#3F4B07"/>
<path d="M363.561 167.3L365.661 169C364.528 171.8 362.728 174.167 360.261 176.1C357.861 178.033 355.661 179 353.661 179C351.728 179 350.194 178.333 349.061 177C347.928 175.6 347.361 173.8 347.361 171.6C347.361 169.4 347.728 166.567 348.461 163.1C345.328 168.033 341.961 171.9 338.361 174.7C334.761 177.5 331.728 178.9 329.261 178.9C325.528 178.9 323.661 176.667 323.661 172.2C323.661 167.733 325.194 161.733 328.261 154.2C331.394 146.6 333.628 142.267 334.961 141.2L339.761 143.3C337.028 147.7 334.961 152.033 333.561 156.3C332.161 160.567 331.461 163.433 331.461 164.9C331.461 166.3 331.894 167.433 332.761 168.3C333.694 169.167 334.761 169.6 335.961 169.6C338.628 169.6 341.928 167.167 345.861 162.3C349.861 157.367 353.928 150.033 358.061 140.3L363.161 142.6C363.028 143.133 361.494 147 358.561 154.2C355.694 161.4 354.261 165.733 354.261 167.2C354.261 168.6 354.561 169.667 355.161 170.4C355.828 171.133 356.461 171.5 357.061 171.5C357.728 171.5 358.228 171.467 358.561 171.4C358.894 171.333 359.228 171.2 359.561 171C359.894 170.8 360.161 170.633 360.361 170.5C360.628 170.367 360.928 170.133 361.261 169.8L361.961 169C362.161 168.867 362.428 168.6 362.761 168.2C363.161 167.733 363.428 167.433 363.561 167.3Z" fill="#3F4B07"/>
<path d="M412.661 167.3L414.761 169C413.628 171.8 411.828 174.167 409.361 176.1C406.961 178.033 404.761 179 402.761 179C400.828 179 399.294 178.333 398.161 177C397.028 175.6 396.461 173.8 396.461 171.6C396.461 169.4 396.828 166.567 397.561 163.1C394.428 168.033 391.061 171.9 387.461 174.7C383.861 177.5 380.828 178.9 378.361 178.9C374.628 178.9 372.761 176.667 372.761 172.2C372.761 167.733 374.294 161.733 377.361 154.2C380.494 146.6 382.728 142.267 384.061 141.2L388.861 143.3C386.128 147.7 384.061 152.033 382.661 156.3C381.261 160.567 380.561 163.433 380.561 164.9C380.561 166.3 380.994 167.433 381.861 168.3C382.794 169.167 383.861 169.6 385.061 169.6C387.728 169.6 391.028 167.167 394.961 162.3C398.961 157.367 403.028 150.033 407.161 140.3L412.261 142.6C412.128 143.133 410.594 147 407.661 154.2C404.794 161.4 403.361 165.733 403.361 167.2C403.361 168.6 403.661 169.667 404.261 170.4C404.928 171.133 405.561 171.5 406.161 171.5C406.828 171.5 407.328 171.467 407.661 171.4C407.994 171.333 408.328 171.2 408.661 171C408.994 170.8 409.261 170.633 409.461 170.5C409.728 170.367 410.028 170.133 410.361 169.8L411.161 169C411.294 168.867 411.528 168.6 411.861 168.2C412.261 167.733 412.528 167.433 412.661 167.3ZM406.861 129.2L409.861 130.8C408.528 132.867 406.794 134.7 404.661 136.3C402.594 137.9 400.528 138.7 398.461 138.7C396.394 138.7 394.228 137.933 391.961 136.4C389.694 134.8 387.861 133.2 386.461 131.6L389.661 128.9C393.128 132.3 395.961 134 398.161 134C401.561 134 404.461 132.4 406.861 129.2Z" fill="#3F4B07"/>
<path d="M229.9 168.9L232.2 170.6C231.267 172.6 229.533 174.5 227 176.3C224.533 178.1 222.267 179 220.2 179C216.267 179 214.3 176.933 214.3 172.8C214.3 170.867 214.8 168.567 215.8 165.9L212.1 169.7C208.5 173.367 205.367 175.833 202.7 177.1C200.1 178.367 197.533 179 195 179C192.467 179 190.533 178.3 189.2 176.9C187.933 175.433 187.3 173.433 187.3 170.9C187.3 166.233 189.1 161.633 192.7 157.1C196.3 152.5 200.9 148.767 206.5 145.9C212.1 143.033 217.7 141.567 223.3 141.5L223.5 144.8L219.3 145.7C213.233 147.033 207.867 149.7 203.2 153.7C198.6 157.7 196.3 161.7 196.3 165.7C196.3 169.633 197.9 171.6 201.1 171.6C204.1 171.6 207.8 169.5 212.2 165.3C216.6 161.1 220.267 156.167 223.2 150.5L227.4 153C223.267 161.333 221.2 166.633 221.2 168.9C221.2 169.833 221.5 170.633 222.1 171.3C222.767 171.9 223.4 172.2 224 172.2C224.667 172.2 225.1 172.167 225.3 172.1C225.5 172.033 225.7 171.967 225.9 171.9C226.1 171.767 226.333 171.6 226.6 171.4C226.933 171.2 227.2 171 227.4 170.8C227.667 170.6 228.067 170.3 228.6 169.9C229.133 169.5 229.567 169.167 229.9 168.9Z" stroke="black" stroke-width="4" mask="url(#path-1-outside-1_307_7467)"/>
<path d="M267.626 167.5L270.426 169.6C269.759 171 268.326 172.6 266.126 174.4C263.993 176.2 261.493 177.1 258.626 177.1C254.759 177.1 252.826 175.133 252.826 171.2C252.826 168.933 253.292 166.433 254.226 163.7C255.226 160.9 256.192 158.367 257.126 156.1C258.059 153.767 258.626 152.3 258.826 151.7C257.226 153.967 254.626 156.333 251.026 158.8C247.492 161.2 244.259 162.4 241.326 162.4C236.992 162.4 234.826 159.933 234.826 155C234.826 151.8 235.692 148.267 237.426 144.4C239.226 140.533 241.092 137.833 243.026 136.3L247.426 137.9C244.292 143.7 242.726 148 242.726 150.8C242.726 153.6 244.026 155 246.626 155C249.626 155 253.059 153.333 256.926 150C260.792 146.667 263.526 142.5 265.126 137.5L270.326 140.4C263.126 153.133 259.526 161.967 259.526 166.9C259.526 169.167 260.393 170.3 262.126 170.3C263.926 170.3 265.759 169.367 267.626 167.5Z" stroke="black" stroke-width="4" mask="url(#path-1-outside-1_307_7467)"/>
<path d="M313.531 140.1L317.431 141C317.364 141.467 316.397 143.5 314.531 147.1C312.731 150.633 310.797 155.3 308.731 161.1C306.664 166.833 305.331 172.633 304.731 178.5L298.331 178C298.331 174.333 299.497 169.6 301.831 163.8C301.231 163.733 299.997 163.7 298.131 163.7C296.331 163.7 292.997 164.133 288.131 165C284.731 172.6 283.031 179.1 283.031 184.5L276.331 183.6C276.331 178.867 278.097 173.033 281.631 166.1C278.231 166.633 274.831 167.433 271.431 168.5L270.431 164.6C270.431 164.4 272.197 163.833 275.731 162.9C279.331 161.967 281.997 161.367 283.731 161.1C289.064 148.833 292.697 141.733 294.631 139.8L298.931 141.5C298.597 142.167 297.831 143.667 296.631 146C293.631 151.8 291.597 156.333 290.531 159.6C296.331 159 299.797 158.7 300.931 158.7C302.131 158.7 303.131 158.733 303.931 158.8C308.597 148.067 311.797 141.833 313.531 140.1Z" stroke="black" stroke-width="4" mask="url(#path-1-outside-1_307_7467)"/>
<path d="M363.561 167.3L365.661 169C364.528 171.8 362.728 174.167 360.261 176.1C357.861 178.033 355.661 179 353.661 179C351.728 179 350.194 178.333 349.061 177C347.928 175.6 347.361 173.8 347.361 171.6C347.361 169.4 347.728 166.567 348.461 163.1C345.328 168.033 341.961 171.9 338.361 174.7C334.761 177.5 331.728 178.9 329.261 178.9C325.528 178.9 323.661 176.667 323.661 172.2C323.661 167.733 325.194 161.733 328.261 154.2C331.394 146.6 333.628 142.267 334.961 141.2L339.761 143.3C337.028 147.7 334.961 152.033 333.561 156.3C332.161 160.567 331.461 163.433 331.461 164.9C331.461 166.3 331.894 167.433 332.761 168.3C333.694 169.167 334.761 169.6 335.961 169.6C338.628 169.6 341.928 167.167 345.861 162.3C349.861 157.367 353.928 150.033 358.061 140.3L363.161 142.6C363.028 143.133 361.494 147 358.561 154.2C355.694 161.4 354.261 165.733 354.261 167.2C354.261 168.6 354.561 169.667 355.161 170.4C355.828 171.133 356.461 171.5 357.061 171.5C357.728 171.5 358.228 171.467 358.561 171.4C358.894 171.333 359.228 171.2 359.561 171C359.894 170.8 360.161 170.633 360.361 170.5C360.628 170.367 360.928 170.133 361.261 169.8L361.961 169C362.161 168.867 362.428 168.6 362.761 168.2C363.161 167.733 363.428 167.433 363.561 167.3Z" stroke="black" stroke-width="4" mask="url(#path-1-outside-1_307_7467)"/>
<path d="M412.661 167.3L414.761 169C413.628 171.8 411.828 174.167 409.361 176.1C406.961 178.033 404.761 179 402.761 179C400.828 179 399.294 178.333 398.161 177C397.028 175.6 396.461 173.8 396.461 171.6C396.461 169.4 396.828 166.567 397.561 163.1C394.428 168.033 391.061 171.9 387.461 174.7C383.861 177.5 380.828 178.9 378.361 178.9C374.628 178.9 372.761 176.667 372.761 172.2C372.761 167.733 374.294 161.733 377.361 154.2C380.494 146.6 382.728 142.267 384.061 141.2L388.861 143.3C386.128 147.7 384.061 152.033 382.661 156.3C381.261 160.567 380.561 163.433 380.561 164.9C380.561 166.3 380.994 167.433 381.861 168.3C382.794 169.167 383.861 169.6 385.061 169.6C387.728 169.6 391.028 167.167 394.961 162.3C398.961 157.367 403.028 150.033 407.161 140.3L412.261 142.6C412.128 143.133 410.594 147 407.661 154.2C404.794 161.4 403.361 165.733 403.361 167.2C403.361 168.6 403.661 169.667 404.261 170.4C404.928 171.133 405.561 171.5 406.161 171.5C406.828 171.5 407.328 171.467 407.661 171.4C407.994 171.333 408.328 171.2 408.661 171C408.994 170.8 409.261 170.633 409.461 170.5C409.728 170.367 410.028 170.133 410.361 169.8L411.161 169C411.294 168.867 411.528 168.6 411.861 168.2C412.261 167.733 412.528 167.433 412.661 167.3ZM406.861 129.2L409.861 130.8C408.528 132.867 406.794 134.7 404.661 136.3C402.594 137.9 400.528 138.7 398.461 138.7C396.394 138.7 394.228 137.933 391.961 136.4C389.694 134.8 387.861 133.2 386.461 131.6L389.661 128.9C393.128 132.3 395.961 134 398.161 134C401.561 134 404.461 132.4 406.861 129.2Z" stroke="black" stroke-width="4" mask="url(#path-1-outside-1_307_7467)"/>
<path d="M172.144 48.1652C173.03 52.3532 213.863 46.6718 201.943 35.2191C194.381 29.3661 190.917 44.6031 194.99 49.659C205.42 62.6057 215.85 58.1243 220.379 58.1243C226.404 58.1243 235.117 52.7929 225.286 49.1615C215.85 45.676 210.883 65.5934 223.3 69.5764C231.069 72.0688 234.188 76.2887 241.676 79.5351C260.052 87.5025 259.556 107.917 259.556 107.917" stroke="#5B6C0F" stroke-width="2" stroke-linecap="round" stroke-linejoin="round"/>
<path d="M102.272 16.9712C91.1817 17.8789 70.0934 15.7729 66.0161 30.4154C61.9748 44.9287 85.281 65.9978 95.8157 51.3287C102.44 42.1052 82.4042 39.8051 80.9159 39.8762C70.486 40.3741 67.1005 43.9454 66.0161 50.8308C64.5261 60.2915 68.9961 64.773 74.956 69.7523C79.128 73.238 87.8458 76.6087 88.8624 71.2461C89.8267 66.1594 82.3266 63.4712 76.9426 63.7771C71.1851 64.1042 69.0242 68.0321 68.4994 73.2378C67.8626 79.5546 76.446 86.1842 79.9226 86.1842C82.8186 86.1842 80.0143 81.7257 77.9359 81.2048C73.9627 80.2089 67.8286 84.1789 65.5195 89.1718C62.7061 95.2549 69.838 98.93 70.486 105.604C71.0324 111.23 70.9748 114.188 69.9894 119.546C69.255 123.539 67.0094 129.505 67.0094 129.505" stroke="#5B6C0F" stroke-width="2" stroke-linecap="round" stroke-linejoin="round"/>
<path d="M70.0895 171.839L70.681 171.613C72.2142 176.619 72.3413 176.325 71.864 182.081L71.2726 182.813C71.3224 176.442 71.6788 177.442 70.0895 171.839Z" fill="#738815"/>
<path d="M70.681 171.613L70.5019 171.146C70.6313 171.096 70.7755 171.102 70.9001 171.163C71.0247 171.224 71.1185 171.334 71.1591 171.466L70.681 171.613ZM70.0895 171.839L69.6084 171.976L69.4838 171.536L69.9104 171.373L70.0895 171.839ZM71.2726 182.813L71.6615 183.127L70.7614 184.241L70.7726 182.809L71.2726 182.813ZM71.864 182.081L72.3623 182.122L72.3496 182.276L72.2529 182.395L71.864 182.081ZM70.8601 172.079L70.2686 172.306L69.9104 171.373L70.5019 171.146L70.8601 172.079ZM70.5705 171.703C71.3612 174.49 71.6858 175.692 71.794 176.997C71.8998 178.273 71.7971 179.675 71.7726 182.817L70.7726 182.809C70.7978 179.579 70.8983 178.296 70.7974 177.079C70.6989 175.891 70.4071 174.791 69.6084 171.976L70.5705 171.703ZM70.8837 182.498L71.4752 181.767L72.2529 182.395L71.6615 183.127L70.8837 182.498ZM71.3658 182.04C71.6057 179.146 71.6862 177.838 71.5305 176.629C71.3738 175.412 70.9795 174.295 70.2029 171.759L71.1591 171.466C71.9156 173.936 72.3515 175.175 72.5223 176.502C72.6943 177.837 72.5997 179.259 72.3623 182.122L71.3658 182.04Z" fill="#5B6C0F"/>
<path d="M111.551 104.608C107.601 90.2887 119.994 70.7481 134.398 77.7192C138.626 79.7656 140.648 82.6289 141.847 87.1799C144.569 97.5046 122.792 89.5112 115.028 82.2006C102.744 70.6345 110.061 44.8554 123.968 39.8761" stroke="#5B6C0F" stroke-width="2" stroke-linecap="round" stroke-linejoin="round"/>
<path d="M31.0741 71.7487C31.5336 72.37 32.1088 73.4433 32.1088 73.4433C32.1088 73.4433 33.0182 81.578 32.2393 91.0258C32.091 92.825 33.276 98.4409 32.471 98.4252C31.7869 98.4117 31.4343 91.01 31.72 84.458C31.9408 79.3935 31.6966 73.8538 31.0741 71.7487Z" fill="#738815" stroke="#5B6C0F" stroke-linecap="round" stroke-linejoin="round"/>
<path d="M37.3619 107.971C37.319 108.641 37.4263 109.279 37.8343 109.706C38.6887 110.6 40.2849 111.985 42.5175 111.748C45.2465 114.033 47.4561 113.818 47.6215 113.659C48.1914 113.112 46.2309 111.686 46.0322 110.28C45.8943 109.304 46.3892 108.864 46.0858 108.049C45.5626 106.643 43.526 104.512 43.526 104.512C43.526 104.512 45.1929 104.301 46.0502 103.722C47.3844 102.821 48.0847 100.133 48.0847 100.133C48.0847 100.133 49.9834 96.4012 49.8677 95.4222C49.752 94.4432 47.0125 96.4457 45.1041 96.7272C43.3278 96.9892 42.1327 97.9061 40.9305 96.6479C40.1158 95.7952 40.062 93.7639 39.653 91.8793C39.2184 89.8768 39.5778 86.3851 38.8028 86.7001C37.8188 87.1 36.5367 88.3316 35.3904 89.7052C34.4988 90.7737 34.5635 91.8843 33.6408 93.021C31.6329 95.4946 33.1592 97.2014 32.8415 97.3316C31.6771 97.8087 29.9501 96.0208 27.5684 96.6733C25.1868 97.3258 23.0473 96.3806 23.2456 97.0098C23.4439 97.639 25.1982 100.099 25.7587 102.5C27.279 102.947 27.957 103.764 28.9017 104.932C28.9017 104.932 30.4891 104.305 31.1276 104.974C31.6707 105.542 30.7625 108.595 30.0302 110.116C29.2978 111.637 28.403 114.132 28.5254 114.832C28.6478 115.532 31.6957 114.359 33.2889 113.527C35.0649 112.6 36.7079 110.243 36.7079 110.243L37.3619 107.971Z" fill="#FDDE3A"/>
<path d="M34.9071 104.069C33.9561 104.739 33.3014 104.929 31.9622 104.99M35.4703 103.8C34.5304 102.673 34.8767 101.873 36.8126 100.058M38.8359 102.748C38.2784 104.844 37.6521 105.117 36.0201 104.09M42.9627 104.78C41.9491 105.629 41.0501 105.569 38.7959 104.422M40.2383 96.4952C40.2383 96.4952 39.6856 96.57 39.3969 96.7583C38.8452 97.1182 39.1587 97.8433 38.6645 98.2794C38.1472 98.7358 37.1376 98.1108 36.9817 98.8056M47.6215 113.659C48.1914 113.112 46.2309 111.686 46.0322 110.28C45.8943 109.304 46.3892 108.864 46.0858 108.049C45.5626 106.643 43.526 104.512 43.526 104.512C43.526 104.512 45.1929 104.301 46.0502 103.722C47.3844 102.821 48.0847 100.133 48.0847 100.133C48.0847 100.133 49.9834 96.4012 49.8677 95.4222C49.752 94.4432 47.0125 96.4457 45.1041 96.7272C43.3278 96.9892 42.1327 97.9061 40.9305 96.6479C40.1158 95.7952 40.062 93.7639 39.653 91.8793C39.2184 89.8768 39.5778 86.3851 38.8028 86.7001C37.8188 87.1 36.5367 88.3316 35.3904 89.7052C34.4988 90.7737 34.5635 91.8843 33.6408 93.021C31.6329 95.4946 33.1592 97.2014 32.8415 97.3316C31.6771 97.8087 29.9501 96.0208 27.5684 96.6733C25.1868 97.3258 23.0473 96.3806 23.2456 97.0098C23.4439 97.639 25.1982 100.099 25.7587 102.5C27.279 102.947 27.957 103.764 28.9017 104.932C28.9017 104.932 30.4891 104.305 31.1276 104.974C31.6707 105.542 30.7625 108.595 30.0302 110.116C29.2978 111.637 28.403 114.132 28.5254 114.832C28.6478 115.532 31.6957 114.359 33.2889 113.527C35.0649 112.6 36.7079 110.243 36.7079 110.243L38.2261 104.969C38.2261 104.969 36.5572 108.369 37.8343 109.706C38.6887 110.6 40.2849 111.985 42.5175 111.748C45.2465 114.033 47.4561 113.818 47.6215 113.659Z" stroke="#B69F29" stroke-linecap="round" stroke-linejoin="round"/>
<path d="M205.42 46.8471C199.72 46.8471 194.158 48.196 188.772 50.5775M188.772 50.5775C158.023 64.1742 132.992 111.43 120.491 133.488C107.638 156.168 89.4344 172.944 75.2214 182.143M188.772 50.5775C197.511 58.4689 200.294 70.2954 200.95 85.188C202.44 119.048 161.714 185.771 122.478 189.754C104.491 191.581 88.793 185.277 75.2214 182.143M188.772 50.5775C177.644 40.5271 160.885 36.0516 140.854 36.8884C134.883 37.1378 129.209 37.8919 123.829 39.0833M75.2214 182.143C61.9747 190.717 52.1942 192.71 53.4422 186.767C55.1325 178.717 63.44 179.423 75.2214 182.143ZM123.829 39.0833C70.6011 50.8694 46.0949 105.451 46.8534 137.567M123.829 39.0833C135.453 67.9244 125.785 118.41 79.2685 153.903C58.4647 169.777 47.3454 158.397 46.8534 137.567M123.829 39.0833C111.454 8.37877 74.0347 1.60235 33.0792 64.7727C7.25293 104.608 22.7315 132.755 46.8534 137.567M46.8534 137.567C70.1065 142.206 100.481 125.368 106.088 77.2211M46.9857 135.977C56.4222 89.1715 76.7852 57.8016 121.981 40.3739M30.0993 128.508C14.2062 113.072 19.1728 85.188 36.5559 57.8016M25.1328 80.2087C38.5426 44.8553 65.3621 14.4813 95.6583 16.473M94.8766 166.352C109.28 149.774 129.146 108.579 155.469 77.7072M92.1816 169.339C109.068 158.882 142.841 99.1302 164.197 68.7562M101.177 187.438C144.386 191.421 176.872 155.072 195.045 120.216M116.518 189.256C162.211 189.256 198.963 140.957 202.44 96.1426M199.46 66.7645C203.433 85.188 203.433 109.089 185.553 139.961M65.8587 160.874C83.7384 156.891 108.075 133.488 115.525 111.579M64.3687 137.064C82.7451 128.011 91.7116 119.271 102.208 96.1427M45.4957 135.977C43.0124 114.068 60.8921 73.2376 87.215 56.8058M106.088 46.8471C129.787 37.0308 142.841 35.8925 169.66 40.3739M41.0257 135.977C12.7162 115.562 19.9041 87.8738 45.4957 46.8471M84.7317 17.1417C97.6449 14.1541 113.041 18.4648 121.981 33.9007M75.2952 182.285L75.6864 182.032C92.2666 171.276 97.7104 167.745 106.088 154.899M73.8052 182.783C84.5812 176.007 95.1616 165.854 104.598 152.907M80.2618 183.281C97.4319 186.905 108.078 188.013 125.458 186.767M26.126 124.027C38.5425 138.965 57.9121 139.961 71.8186 133.488M131.418 185.771C122.974 193.738 97.6448 190.75 74.7985 181.787M199.03 64.7727C206.421 84.1101 205.382 97.603 195.045 127.015M146.468 95.5683C159.381 76.6468 167.177 62.781 185.057 52.3244M193.5 55.312C197.97 61.7851 200.767 69.7451 201.391 80.2088M80.7584 19.4606C90.195 16.473 100.625 16.473 110.061 21.4525M45.9923 127.015C44.5024 137.471 46.9857 148.924 49.469 152.409M49.221 126.019C46.1285 136.484 47.4823 146.932 50.4624 153.405M143.407 94.151C162.554 65.1102 171.44 59.8996 190.833 49.6947L191.513 49.3367C171.647 59.7934 162.777 64.7728 143.407 94.151Z" stroke="black" stroke-width="7" stroke-linecap="round" stroke-linejoin="round"/>
<path d="M205.42 46.8472C167.176 46.8472 135.181 107.567 120.491 133.488C95.6581 177.306 50.8551 199.086 53.4421 186.767C57.0796 169.445 91.36 192.668 124.961 189.257C164.197 185.273 204.923 118.55 203.433 84.6902C201.943 50.8307 176.614 35.3947 140.854 36.8885C37.5027 41.2059 23.146 196.726 79.2684 153.903C175.307 80.6238 114.273 -56.5632 33.0791 64.7728C-19.5667 143.447 94.6648 175.314 106.088 77.2212" stroke="#5B6C0F" stroke-width="4" stroke-linecap="round" stroke-linejoin="round"/>
<path d="M205.42 46.8471C167.176 46.8471 135.181 107.567 120.491 133.488C95.6582 177.306 50.8552 199.086 53.4422 186.767C57.0796 169.444 91.3601 192.668 124.961 189.257C164.197 185.273 204.923 118.55 203.433 84.6901C201.943 50.8306 176.614 35.3946 140.854 36.8884" stroke="#3F4B07" stroke-width="4" stroke-linecap="round" stroke-linejoin="round"/>
<path d="M46.9856 135.978C56.4221 89.1716 76.7851 57.8017 121.981 40.374M30.0992 128.509C14.2061 113.073 19.1727 85.1881 36.5558 57.8017M25.1327 80.2088C38.5424 44.8554 65.362 14.4814 95.6582 16.4731M95.6581 166.363C110.061 149.786 129.928 108.591 156.251 77.7191M92.1815 169.339C109.068 158.883 142.841 99.1303 164.197 68.7563M102.611 188.261C145.821 192.244 178.307 155.895 196.48 121.039M116.518 189.257C162.21 189.257 198.963 140.957 202.44 96.1427" stroke="#5B6C0F" stroke-width="5" stroke-linecap="round" stroke-linejoin="round"/>
<path d="M95.6581 166.363C110.061 149.786 129.928 108.591 156.251 77.7189M92.1815 169.339C109.068 158.882 142.841 99.1301 164.197 68.7561M102.611 188.261C145.821 192.244 178.307 155.895 196.48 121.039M116.518 189.256C162.21 189.256 198.963 140.957 202.44 96.1426" stroke="#3F4B07" stroke-width="5" stroke-linecap="round" stroke-linejoin="round"/>
<path d="M143.337 93.653C162.707 64.2748 171.647 59.7934 191.513 49.3368M199.46 66.7645C203.433 85.1881 203.433 109.089 185.553 139.961M65.8586 160.874C83.7383 156.891 108.075 133.488 115.525 111.579M64.3686 137.471C82.5728 127.642 91.1217 119.271 101.618 96.1427M45.4956 135.977C43.0123 114.068 60.892 73.2377 87.2149 56.8058M106.585 47.8429C130.284 38.0267 142.841 35.8925 169.66 40.374M41.0257 135.977C12.7161 115.562 19.904 87.8739 45.4956 46.8471M86.2216 15.9752C99.1348 12.9876 113.041 18.4648 121.981 33.9008" stroke="#5B6C0F" stroke-width="3" stroke-linecap="round" stroke-linejoin="round"/>
<path d="M143.337 93.6531C162.707 64.275 171.647 59.7935 191.513 49.3369M199.46 66.7646C203.433 85.1882 203.433 109.089 185.553 139.961" stroke="#3F4B07" stroke-width="3" stroke-linecap="round" stroke-linejoin="round"/>
<path d="M75.295 182.286C92.1814 171.331 97.6447 167.845 106.088 154.899" stroke="#3F4B07" stroke-width="3" stroke-linecap="round" stroke-linejoin="round"/>
<path d="M73.8052 182.783C84.5812 176.007 95.1615 165.854 104.598 152.907" stroke="#3F4B07" stroke-width="3" stroke-linecap="round" stroke-linejoin="round"/>
<path d="M80.2617 183.281C97.4319 186.905 108.078 188.013 125.458 186.767" stroke="#3F4B07" stroke-width="3" stroke-linecap="round" stroke-linejoin="round"/>
<path d="M26.1259 124.027C38.5423 138.965 57.4154 140.459 71.3218 133.986" stroke="#5B6C0F" stroke-width="3" stroke-linecap="round" stroke-linejoin="round"/>
<path d="M131.418 185.771C122.974 193.738 97.6448 190.75 74.7985 181.788" stroke="#3F4B07" stroke-width="3" stroke-linecap="round" stroke-linejoin="round"/>
<path d="M199.46 64.7727C206.851 84.1101 206.32 97.603 195.983 127.015" stroke="#3F4B07" stroke-width="3" stroke-linecap="round" stroke-linejoin="round"/>
<path d="M146.814 95.6448C159.727 76.7233 167.177 62.7811 185.057 52.3245" stroke="#3F4B07" stroke-width="3" stroke-linecap="round" stroke-linejoin="round"/>
<path d="M193.5 55.312C197.97 61.7852 200.822 69.7451 201.446 80.2088" stroke="#3F4B07" stroke-width="3" stroke-linecap="round" stroke-linejoin="round"/>
<path d="M80.7583 19.4608C90.1948 16.4732 100.625 16.4732 110.061 21.4526" stroke="#5B6C0F" stroke-width="3" stroke-linecap="round" stroke-linejoin="round"/>
<path d="M45.9923 127.015C44.5023 137.471 46.9857 148.924 49.4689 152.409" stroke="#5B6C0F" stroke-width="3" stroke-linecap="round" stroke-linejoin="round"/>
<path d="M49.9656 126.517C46.8731 136.982 47.4822 146.932 50.4623 153.405" stroke="#5B6C0F" stroke-width="3" stroke-linecap="round" stroke-linejoin="round"/>
<path d="M205.916 47.843C205.156 47.9257 203.995 48.2282 203.995 48.2282C203.995 48.2282 197.622 53.0432 191.509 59.9767C190.344 61.297 185.553 64.2138 186.13 64.7916C186.619 65.2827 192.085 60.5545 196.503 55.9321C199.919 52.3592 203.995 48.806 205.916 47.843Z" fill="#738815" stroke="#5B6C0F" stroke-linecap="round" stroke-linejoin="round"/>
<path d="M176.146 67.8081C175.703 68.2897 175.181 68.6436 174.603 68.6436C173.394 68.6436 171.338 68.451 169.993 66.7176C166.535 66.3324 165.19 64.63 165.19 64.4064C165.19 63.636 167.523 64.0575 168.648 63.2508C169.43 62.6906 169.405 62.0452 170.185 61.7101C171.53 61.1323 174.411 61.1323 174.411 61.1323C174.411 61.1323 173.431 59.8153 173.259 58.8211C172.99 57.2738 174.411 54.9691 174.411 54.9691C174.411 54.9691 175.756 51.1172 176.524 50.5394C177.293 49.9616 177.736 53.2416 178.83 54.7766C179.848 56.2054 180.01 57.6655 181.711 57.6656C182.864 57.6656 184.332 56.3353 185.937 55.3543C187.643 54.312 189.861 51.7068 190.164 52.4654C190.548 53.4284 190.548 55.1618 190.356 56.8951C190.206 58.2434 189.38 58.9458 189.203 60.3619C188.819 63.4435 186.583 63.517 186.706 63.8287C187.158 64.971 189.588 64.9843 190.74 67.1028C191.893 69.2213 194.007 70.093 193.43 70.377C192.852 70.661 189.93 71.0814 187.858 72.3029C186.514 71.5325 185.479 71.605 184.016 71.7251C184.016 71.7251 183.383 70.1844 182.48 70.1844C181.711 70.1844 180.174 72.8807 179.598 74.4215C179.022 75.9623 177.869 78.2735 177.293 78.6587C176.716 79.0439 175.48 76.1049 174.988 74.4215C174.439 72.545 174.988 69.7992 174.988 69.7992L176.146 67.8081Z" fill="#FDDE3A"/>
<path d="M180.559 66.9102C180.73 68.0318 181.039 68.6218 181.903 69.6066M180.367 66.3325C181.797 66.2358 182.127 65.4525 182.095 62.8657M178.83 63.2508C177.73 65.0554 177.961 65.6813 179.79 66.1399M174.603 61.7101C174.691 62.9966 175.342 63.5903 177.677 64.4064M182.288 58.0508C182.288 58.0508 182.609 58.4907 182.672 58.8211C182.792 59.4524 182.068 59.7199 182.095 60.3619C182.124 61.0341 183.248 61.3249 182.864 61.9027M165.19 64.4064C165.19 63.636 167.523 64.0575 168.648 63.2508C169.43 62.6906 169.405 62.0452 170.185 61.7101C171.53 61.1323 174.411 61.1323 174.411 61.1323C174.411 61.1323 173.431 59.8153 173.259 58.8211C172.99 57.2738 174.411 54.9691 174.411 54.9691C174.411 54.9691 175.756 51.1172 176.524 50.5394C177.293 49.9616 177.736 53.2416 178.83 54.7766C179.848 56.2054 180.01 57.6655 181.711 57.6656C182.864 57.6656 184.332 56.3353 185.937 55.3543C187.643 54.312 189.861 51.7068 190.164 52.4654C190.548 53.4284 190.548 55.1618 190.356 56.8951C190.206 58.2434 189.38 58.9458 189.203 60.3619C188.819 63.4435 186.583 63.517 186.706 63.8287C187.158 64.971 189.588 64.9843 190.74 67.1028C191.893 69.2213 194.007 70.093 193.43 70.377C192.852 70.661 189.93 71.0814 187.858 72.3029C186.514 71.5325 185.479 71.605 184.016 71.7251C184.016 71.7251 183.383 70.1844 182.48 70.1844C181.711 70.1844 180.174 72.8807 179.598 74.4215C179.022 75.9623 177.869 78.2735 177.293 78.6587C176.716 79.0439 175.48 76.1049 174.988 74.4215C174.439 72.545 174.988 69.7992 174.988 69.7992L177.677 65.1768C177.677 65.1768 176.41 68.6436 174.603 68.6436C173.394 68.6436 171.338 68.451 169.993 66.7176C166.535 66.3324 165.19 64.63 165.19 64.4064Z" stroke="#B69F29" stroke-linecap="round" stroke-linejoin="round"/>
<path d="M81.7874 17.4057C81.7874 17.4057 80.7047 16.9712 80.488 16.9712C80.0545 22.1853 81.4587 25.8787 84.4405 32.1791C87.4224 38.4796 88.6647 46.2279 86.5552 51.515C86.3981 51.9088 87.6387 51.515 87.6387 51.515C91.5393 35.438 80.7039 30.0066 81.7874 17.4057Z" fill="#738815"/>
<path d="M80.488 16.9712V16.4712C80.2279 16.4712 80.0113 16.6706 79.9897 16.9298L80.488 16.9712ZM81.7874 17.4057L82.2855 17.4486L82.3173 17.0796L81.9736 16.9417L81.7874 17.4057ZM87.6387 51.515L87.79 51.9915L88.0583 51.9064L88.1246 51.6328L87.6387 51.515ZM86.5552 51.515L87.0196 51.7002H87.0196L86.5552 51.515ZM84.4405 32.1791L84.8925 31.9652L84.4405 32.1791ZM80.488 17.4712C80.4528 17.4712 80.445 17.4656 80.4912 17.4765C80.5263 17.4848 80.5745 17.4982 80.635 17.5168C80.7552 17.554 80.9018 17.605 81.0476 17.6582C81.1922 17.7109 81.3309 17.7639 81.4338 17.8039C81.4851 17.8238 81.5273 17.8404 81.5565 17.852C81.571 17.8577 81.5824 17.8623 81.59 17.8653C81.5938 17.8668 81.5967 17.868 81.5985 17.8687C81.5995 17.8691 81.6002 17.8694 81.6006 17.8695C81.6008 17.8696 81.601 17.8697 81.6011 17.8697C81.6011 17.8697 81.6011 17.8697 81.6012 17.8697C81.6012 17.8698 81.6012 17.8698 81.6012 17.8698C81.6011 17.8697 81.6011 17.8697 81.7874 17.4057C81.9736 16.9417 81.9736 16.9417 81.9736 16.9417C81.9735 16.9417 81.9735 16.9417 81.9735 16.9417C81.9734 16.9416 81.9734 16.9416 81.9733 16.9416C81.9731 16.9415 81.9729 16.9414 81.9726 16.9413C81.972 16.941 81.9711 16.9407 81.97 16.9402C81.9677 16.9394 81.9645 16.9381 81.9603 16.9364C81.952 16.9331 81.9398 16.9282 81.9244 16.9221C81.8935 16.9099 81.8494 16.8925 81.7958 16.8717C81.6889 16.8302 81.5434 16.7746 81.3903 16.7187C81.2383 16.6633 81.0736 16.6057 80.9299 16.5613C80.8584 16.5392 80.7865 16.5187 80.7209 16.5032C80.6664 16.4904 80.5774 16.4712 80.488 16.4712V17.4712ZM81.2892 17.3629C80.7344 23.8155 83.2434 28.4571 85.3088 33.3512C87.3741 38.2451 89.0675 43.5053 87.1528 51.3971L88.1246 51.6328C90.1105 43.4476 88.3365 37.9536 86.2301 32.9624C84.1238 27.9713 81.7569 23.5968 82.2855 17.4486L81.2892 17.3629ZM87.6387 51.515C87.4874 51.0384 87.4875 51.0384 87.4875 51.0384C87.4875 51.0384 87.4876 51.0383 87.4876 51.0383C87.4876 51.0383 87.4877 51.0383 87.4877 51.0383C87.4877 51.0383 87.4876 51.0383 87.4875 51.0384C87.4872 51.0385 87.4866 51.0386 87.4858 51.0389C87.4841 51.0394 87.4814 51.0403 87.4776 51.0415C87.4699 51.0438 87.4583 51.0474 87.4431 51.0519C87.4128 51.0609 87.3691 51.0736 87.3169 51.0877C87.2105 51.1164 87.0775 51.1488 86.9545 51.1697C86.8931 51.1801 86.8407 51.1865 86.7994 51.1889C86.7537 51.1916 86.7425 51.1881 86.7544 51.1905C86.7616 51.1919 86.7883 51.1976 86.8242 51.2159C86.8612 51.2348 86.9179 51.2724 86.966 51.3409C87.0805 51.5041 87.0345 51.6628 87.0196 51.7002L86.0908 51.3297C86.0366 51.4656 85.9951 51.6981 86.1473 51.9151C86.2778 52.1012 86.4711 52.154 86.562 52.1718C86.7539 52.2094 86.9742 52.1806 87.1216 52.1556C87.2891 52.1272 87.4564 52.0858 87.5778 52.053C87.6394 52.0364 87.6914 52.0213 87.7283 52.0104C87.7468 52.0049 87.7616 52.0003 87.7721 51.9971C87.7773 51.9955 87.7815 51.9942 87.7845 51.9932C87.786 51.9928 87.7872 51.9924 87.7882 51.9921C87.7886 51.992 87.789 51.9918 87.7893 51.9917C87.7895 51.9917 87.7896 51.9916 87.7897 51.9916C87.7898 51.9916 87.7898 51.9916 87.7899 51.9916C87.7899 51.9915 87.79 51.9915 87.6387 51.515ZM87.0196 51.7002C89.2027 46.2286 87.9021 38.3244 84.8925 31.9652L83.9886 32.393C86.9427 38.6348 88.1267 46.2272 86.0908 51.3297L87.0196 51.7002ZM84.8925 31.9652C81.9146 25.6733 80.5646 22.0846 80.9863 17.0126L79.9897 16.9298C79.5444 22.286 81.0027 26.0841 83.9886 32.393L84.8925 31.9652Z" fill="#5B6C0F"/>
<path d="M81.5711 89.3175C87.422 84.5379 88.1369 79.5513 88.7222 79.8376C90.6028 80.7573 91.6842 83.2867 92.7656 84.2065C101.074 74.3189 97.8235 69.7645 99.1237 66.2884C97.6068 64.9848 94.5734 61.2914 98.9074 59.9878C100.98 59.3644 93.2732 49.3423 86.3388 51.9494C84.0688 48.5357 82.7124 44.4171 77.6264 43.9665C75.0311 43.7365 66.1857 43.2591 65.5356 45.2144C65.4865 45.9545 63.352 46.1415 63.1519 46.518C64.0187 47.387 65.9477 48.6905 64.6688 48.6905C63.39 48.6905 62.0684 50.2113 62.0684 50.2113C62.0684 50.2113 59.468 51.2976 58.1678 52.6011C56.8676 53.9047 55.5674 55.7966 55.5674 55.7966C54.8686 57.5944 53.1846 58.1737 53.6171 59.5534C52.967 59.9879 52.6045 63.6812 53.4004 63.2817C55.134 62.1604 58.6012 61.9432 59.9011 62.3777C61.5566 61.5884 56.6786 65.6568 57.5174 66.5056C56.6509 66.9401 56.4342 72.3715 55.7838 72.1543C55.3504 73.2406 56.0005 74.7614 56.0005 75.8476C56.0005 75.8476 55.7838 78.4547 56.4339 79.1065C56.4339 81.279 57.084 80.8445 57.084 81.4472C57.084 81.4472 56.8694 83.5096 57.084 83.8861C57.9508 85.4069 59.0269 84.7552 59.0269 84.7552C59.2436 85.1897 58.8176 87.5795 59.251 87.5795C59.1256 89.5308 59.6678 89.7527 59.6844 89.9693C59.9011 92.7936 60.5512 93.2282 60.5512 93.2282C60.1186 95.2976 61.2013 95.8352 61.2013 97.1388C62.7182 94.9662 62.2848 93.0109 63.8017 94.0972C65.1759 93.1325 67.4856 93.2282 68.5691 91.9246C69.6526 92.1419 70.6018 91.2728 72.253 90.8383C73.0606 90.6258 73.407 93.2562 73.1198 93.4454C72.939 93.5645 78.5373 91.0556 81.5711 89.3175Z" fill="#92A92C" stroke="#3F4B07" stroke-linecap="round" stroke-linejoin="round"/>
<path d="M91.323 55.4255L86.1222 55.2082L87.4224 51.9494L86.3388 52.1666L84.3885 55.2082L82.8716 53.9047L81.7881 49.9941L79.6211 46.3007L77.2374 45.8662L79.1877 47.8215L80.7046 49.9941L81.5714 53.4702C81.5714 53.4702 83.305 55.4255 83.0883 55.6427C82.8716 55.86 82.5901 55.7345 82.0048 55.6427C80.6567 55.4313 79.9647 54.8423 78.971 53.9047C77.2325 52.2643 74.5902 48.8968 73.1201 49.3423C72.6867 49.5596 78.1042 54.3392 77.8875 54.5565C77.6708 54.7737 74.5069 52.5246 72.0366 51.9494C69.4813 51.3543 67.486 51.2976 65.1023 51.9494C62.7186 52.6012 59.0347 57.3808 59.0347 57.3808C59.0347 57.3808 62.8602 53.9778 65.7524 53.2529C68.3528 52.6012 72.6867 52.8184 72.6867 53.4702C72.6867 54.122 70.7602 55.5802 69.2196 56.5118C67.8873 57.3174 65.1023 57.8153 65.1023 57.8153C65.1023 57.8153 68.2723 58.6458 69.653 57.8153C70.7364 57.1635 73.1201 54.122 74.4203 54.122C75.7205 54.122 79.8378 56.0773 79.4044 56.729C78.971 57.3808 77.4541 58.0326 77.4541 58.2498C77.4541 58.4671 82.4382 57.3808 82.6549 57.8153C82.8716 58.2498 79.4044 61.9432 78.2102 62.1604C77.016 62.3777 73.5535 61.7259 72.47 61.5087C71.3865 61.2914 70.7364 59.7706 68.3528 59.7706C65.9691 59.7706 63.3614 61.9317 64.0188 61.5087C64.6761 61.0856 72.0423 60.8551 71.3865 62.1604C70.7308 63.4657 67.1122 62.3032 65.319 62.8122C61.9716 63.7625 59.9015 68.2436 59.9015 68.2436C63.8714 64.753 66.1091 62.9926 70.303 63.2467C70.303 63.2467 68.5695 64.5503 67.486 66.0711C66.0499 68.0868 62.9353 70.6334 62.9353 70.6334C62.9353 70.6334 65.1023 69.7644 66.1858 68.8954C67.2693 68.0264 69.122 65.2227 71.6032 63.2467C74.3131 63.0554 75.7911 63.0957 78.4048 63.2467C78.4048 63.2467 75.0704 66.9401 72.0366 69.7644C70.8698 70.8507 67.5809 72.5016 65.1023 74.1095C61.4184 76.4994 61.2017 81.9308 61.2017 81.9308C61.2017 81.9308 62.2639 77.8982 64.6689 75.8476C67.0738 73.797 68.4008 72.9164 70.7364 71.937C68.3225 75.1098 66.3857 78.4487 64.8856 82.148C63.4709 85.6365 62.2852 91.4901 62.2852 91.4901L65.1023 85.1896C67.4128 79.0944 68.8532 75.8686 72.47 71.5025C72.3853 75.772 72.0221 78.518 70.9531 83.8861C70.9531 83.8861 72.47 81.9308 72.6867 80.41C73.222 76.6539 73.9869 70.8507 73.9869 70.8507L77.8875 65.8538C77.8875 65.8538 78.6833 68.6318 79.6211 70.1989C80.9213 72.3715 81.3667 74.2924 80.9213 76.9339C77.8875 79.541 74.637 83.8861 74.637 83.8861C74.637 83.8861 80.2712 78.6107 80.7046 78.8892C81.2358 79.2305 78.1042 86.0586 78.1042 86.0586C78.1042 86.0586 81.3547 81.9308 81.7881 80.8445C82.2215 79.7582 82.3295 74.9414 81.138 70.4162C82.3632 71.0155 83.9681 72.313 84.6052 73.2405C85.2553 74.3268 85.7622 77.8765 84.6052 82.148C85.666 80.1887 86.4673 78.7931 85.6887 73.675C84.7689 72.218 84.6181 71.3908 82.0048 69.9817C79.8378 69.1126 78.4278 65.9767 79.1877 64.333C80.9283 61.9197 81.9846 60.6477 83.9551 58.4671C84.6722 59.7351 84.904 60.5691 84.6052 62.1604C85.3287 60.2148 85.3546 60.0773 85.6887 60.4224C88.6742 61.1593 88.9835 61.8636 88.9392 63.2467C88.7743 66.1195 88.2979 67.736 87.4223 70.6334C88.7612 68.2402 89.5176 66.6411 90.0227 63.2467C90.0227 63.2467 91.3127 64.7669 91.973 65.8538C93.1992 67.8724 94.14 71.5025 94.14 71.5025C94.14 71.5025 94.049 67.7431 93.0565 65.6365C92.1816 63.7794 89.806 61.5087 89.806 61.5087C91.5284 61.7871 92.7771 62.4279 95.4402 64.333C95.4402 64.333 93.0117 61.5572 90.8895 60.8569C89.7527 60.4818 88.7658 61.0742 87.8557 60.4224C86.9456 59.7706 83.9551 58.6843 84.8219 57.3808C85.9417 55.6969 91.323 55.4255 91.323 55.4255Z" fill="#C7D978" stroke="#5B6C0F" stroke-linejoin="round"/>
<path d="M123.471 33.9173C129.64 23.7751 137.782 19.3227 146.911 24.1463V24.6411C133.834 19.941 124.212 32.8738 123.471 38.7413V33.9173Z" fill="#738815" stroke="#5B6C0F" stroke-linejoin="round"/>
<path d="M137.042 42.4519C137.042 42.4519 135.046 46.3425 134.328 46.1625C133.341 45.9151 134.132 41.7098 131.367 41.7098C129.886 37.2571 133.834 34.2886 131.367 34.2886C132.6 27.1148 134.574 30.0833 134.328 26.6201C138.323 22.7154 143.711 23.3658 150.366 24.8885C145.886 22.4678 142.47 19.941 145.678 14.2514C145.678 14.2514 147.871 12.7802 149.379 12.0251C151.316 11.055 151.353 10.5409 154.313 10.2935C157.274 10.0461 166.946 9.38236 167.637 11.5303C167.85 14.5596 167.744 15.8967 166.897 17.2199C166.292 18.5994 166.404 19.6936 166.897 20.6831L170.351 20.4357C171.585 20.4357 172.52 20.6187 174.053 20.1884C173.559 22.6621 176.767 20.6831 179.974 23.4042C179.496 23.9247 179.483 24.1453 179.974 24.3937C183.464 26.6719 184.829 28.3291 186.362 31.0728H182.908L182.688 33.0517C179.728 33.0517 180.468 33.5465 184.169 36.515C182.442 37.5045 185.958 39.6068 186.883 41.4624C187.211 42.1205 185.402 42.4519 185.402 42.4519C185.402 42.4519 188.117 47.6467 187.87 47.6467H187.13C187.13 47.6467 187.623 51.8521 187.13 51.6047C186.636 51.3573 185.649 51.6047 185.649 51.6047C186.446 53.5388 186.389 54.3258 185.896 55.81C185.184 54.2622 184.492 53.7618 182.688 53.5837C180.996 52.2273 180.226 51.8588 179.481 52.5942C177.592 51.745 176.49 51.1863 175.533 52.0994C173.105 51.1079 171.96 50.7996 171.092 51.6047C169.582 52.0143 168.668 51.8088 166.897 50.6152L166.404 51.6047C163.936 50.8626 160.678 47.0095 160.729 48.8836C160.729 48.8836 158.755 46.1625 158.261 46.1625C157.804 46.1625 157.521 48.1415 157.521 48.1415C154.313 46.1625 157.725 51.117 154.56 49.8731C154.56 49.8731 154.807 51.8521 154.56 52.0994C154.466 52.1934 153.573 52.0994 153.573 52.0994C154.067 54.3258 152.536 54.0513 150.366 53.5837C147.98 51.7712 146.463 50.508 146.911 52.5942C145.344 51.5564 144.613 50.7815 143.704 48.8836C141.976 50.8626 139.928 44.8387 139.509 42.9467C139.509 42.9467 138.769 44.1835 138.275 44.1835C138.029 44.1835 137.042 42.4519 137.042 42.4519Z" fill="#92A92C" stroke="#3F4B07" stroke-linecap="round" stroke-linejoin="round"/>
<path d="M149.625 25.878L148.145 24.8885L150.612 25.3833C151.103 23.5553 151.061 22.5881 150.612 20.9306C148.392 17.22 150.218 15.9543 151.846 14.0042C150.281 16.8555 150.28 18.0785 151.599 19.6937C151.599 19.6937 152.694 17.5068 153.82 16.4779C155.382 15.0506 158.508 14.2515 158.508 14.2515C153.515 18.057 152.725 19.3151 153.326 20.6832C157.415 19.5145 160.235 18.4569 162.949 16.4779C160.975 19.9411 154.313 21.6727 152.833 21.9201C151.787 23.2432 151.869 24.0836 152.339 25.6307C155.236 27.3976 156.975 28.1151 160.729 27.857C166.639 25.05 171.285 24.9469 177.507 27.1149C170.178 25.8701 166.031 25.6888 161.469 29.0939L169.118 33.0518C172.041 33.9067 173.892 33.9906 177.754 35.2782C174.535 34.7726 172.865 34.5452 170.845 34.5361C176.246 38.9096 180.696 43.3077 183.922 49.6258L177.26 41.7099C174.349 38.5311 168.284 33.4516 167.884 33.7939C168.529 35.2165 168.919 37.0098 170.105 40.7204C171.081 43.7736 173.136 46.057 174.299 48.1416C172.765 46.8561 169.858 43.1941 168.871 39.2361C168.143 36.3166 166.65 34.5361 165.17 33.0518C164.153 32.0319 157.274 29.0939 157.274 29.0939C157.274 29.0939 159.742 34.0413 160.235 37.9993C160.791 42.4585 164.43 47.8942 164.43 47.8942C158.014 41.9572 160.975 38.2467 156.534 30.0834C156.287 28.8465 151.599 26.4402 150.366 27.1149C144.937 30.0834 144.547 31.0729 148.145 35.7729C150.859 39.7309 151.106 39.7309 151.846 43.1941C150.375 39.0289 146.917 35.9541 144.547 32.2091C142.81 37.7504 143.799 40.9004 147.261 46.5567C145.361 45.2884 143.457 41.4625 142.963 38.2467C142.963 34.5361 143.329 32.6813 144.197 30.3307C140.447 30.8565 139.325 33.4269 139.016 37.9993C139.016 37.9993 138.511 33.8425 140.003 31.815C141.281 30.0764 142.819 30.1638 144.691 29.0939C146.687 27.9525 149.625 25.878 149.625 25.878Z" fill="#C7D978" stroke="#5B6C0F" stroke-linejoin="round"/>
<path d="M52.0443 163.605C62.3978 165.681 70.9763 174.282 70.9763 174.282C70.9763 174.282 72.4497 155.924 65.6521 150.852C52.9322 141.362 54.2575 144.624 41.9867 136.32C37.2541 133.118 33.0443 139.603 34.2956 146.7C35.8252 155.375 43.4284 161.877 52.0443 163.605Z" fill="#92A92C" stroke="#3F4B07" stroke-linecap="round" stroke-linejoin="round"/>
<path d="M67.1314 165.978C69.9375 168.84 69.707 169.584 70.9769 173.985L70.6811 168.647C68.4069 164.264 67.7334 160.165 67.723 158.86C67.7126 157.554 65.6523 155.894 65.6523 155.894C66.6084 157.401 66.918 158.73 67.1314 161.826C64.0304 159.255 61.8067 156.487 61.2151 154.411C56.7779 145.514 56.1863 146.7 53.2282 144.328C58.1043 148.776 60.6235 155.004 60.3277 155.598C60.0318 156.191 52.6365 150.556 49.0868 146.107C48.791 146.107 50.598 148.895 51.7491 150.556C53.8334 153.564 58.8486 156.191 58.8486 156.191C58.8486 156.191 54.9437 155.833 52.6365 155.004C49.7406 153.965 46.4245 152.039 46.1286 150.852C45.8328 149.666 43.7621 144.624 43.7621 144.624C43.7621 144.624 45.2412 151.446 44.6496 151.742C44.0579 152.039 38.7333 145.811 38.7333 145.811C38.7333 145.811 40.5785 150.38 42.8747 152.335C45.0026 154.147 46.7665 154.324 49.3826 155.301C53.2948 156.762 59.736 157.97 59.736 157.97C62.6251 158.626 64.0793 160.017 66.5397 163.308C66.5397 163.308 60.3277 161.232 58.5528 161.232C56.7779 161.232 47.6077 158.267 47.6077 158.267C47.6077 158.267 55.2988 162.122 57.6653 162.419C60.0318 162.715 64.3252 163.115 67.1314 165.978Z" fill="#C7D978" stroke="#5B6C0F" stroke-linecap="round" stroke-linejoin="round"/>
<g clip-path="url(#clip0_307_7467)">
<path d="M115.642 89.0955L115.642 89.0955C114.039 87.8826 112.559 87.5576 112.083 87.4801L112.081 87.4798C111.996 87.4662 111.912 87.4518 111.828 87.4362L111.825 87.4358C111.369 87.3534 109.985 87.1808 108.389 87.7528C106.773 88.3318 104.993 89.6562 103.748 92.4769C103.075 94.0017 102.083 97.0047 100.851 100.849C100.55 101.789 100.235 102.781 99.9049 103.816C98.8806 107.031 97.7227 110.667 96.4603 114.468C93.1208 124.525 89.0665 135.695 84.8595 143.267L84.8593 143.267L84.8494 143.284C84.841 143.299 84.829 143.32 84.8138 143.347C84.7834 143.401 84.7401 143.479 84.6869 143.579C84.5805 143.78 84.4341 144.068 84.2713 144.425C83.9466 145.138 83.5532 146.134 83.2848 147.257C82.9554 148.632 82.8041 150.236 83.2338 151.753C83.6688 153.29 84.689 154.696 86.6157 155.664L86.6343 155.674C86.6526 155.684 86.6781 155.697 86.7106 155.714C86.7754 155.746 86.8682 155.79 86.9875 155.84C88.0301 156.282 91.0983 157.219 95.2704 155.366L115.642 89.0955ZM115.642 89.0955C117.74 90.6844 119.979 93.7463 120.503 99.576C121.024 105.386 119.844 113.953 115.138 126.604C108.022 145.733 100.753 152.933 95.2706 155.366L115.642 89.0955Z" fill="#3F4B07" stroke="black"/>
<path d="M85.7891 154.322C85.645 154.302 85.6345 154.097 85.7784 154.068C85.8449 154.054 85.91 154.04 85.9755 154.026C84.7919 152.182 84.4474 149.629 83.7707 147.373C83.1328 150.035 83.2326 153.41 86.8488 155.221C86.8488 155.221 86.9635 155.287 87.1822 155.379C86.801 155.078 86.4769 154.73 86.1951 154.345C86.0584 154.345 85.9225 154.34 85.7891 154.322Z" fill="#3F4B07"/>
<path d="M117.745 101.155C117.704 101.264 117.534 101.201 117.575 101.091C117.616 100.981 117.786 101.045 117.745 101.155ZM117.004 107.638C116.88 107.973 116.362 107.778 116.486 107.444C116.611 107.109 117.129 107.303 117.004 107.638ZM112.773 121.518C112.614 121.943 111.957 121.697 112.115 121.273C112.273 120.847 112.93 121.094 112.773 121.518ZM108.29 139.48C108.059 140.073 107.662 140.641 107.323 141.178C106.968 141.739 106.577 142.281 106.185 142.817C105.382 143.915 104.524 144.971 103.62 145.987C103.571 146.041 103.478 145.977 103.526 145.919C104.371 144.891 105.169 143.826 105.914 142.723C106.287 142.17 106.637 141.604 106.992 141.04C107.339 140.487 107.654 139.867 108.059 139.356C108.15 139.241 108.345 139.337 108.29 139.48ZM106.124 137.138C106.254 136.787 106.796 136.99 106.666 137.34C106.535 137.69 105.994 137.487 106.124 137.138ZM115.34 89.4947C115.372 89.5564 115.402 89.6193 115.431 89.6821C116.07 91.0773 116.016 92.6809 115.927 94.2139C114.806 113.555 109.982 133.008 99.6077 149.327C100.677 148.622 101.677 147.813 102.669 146.968C102.794 146.862 102.978 147.035 102.878 147.165C101.847 148.5 100.443 149.551 98.9379 150.363C98.8704 150.466 98.8056 150.57 98.7377 150.673C98.0561 151.703 97.2736 152.757 96.3952 153.683C96.6335 153.669 96.8702 153.645 97.1034 153.607C97.1305 153.603 97.1451 153.645 97.118 153.654C96.8104 153.76 96.504 153.835 96.1975 153.887C95.8366 154.253 95.4605 154.598 95.0684 154.909C100.366 152.558 107.57 145.515 114.67 126.43C124.056 101.199 119.287 92.483 115.34 89.4947Z" fill="#323D03"/>
<path d="M109.092 94.2313C109.172 94.2965 109.217 94.4027 109.17 94.5291C109.117 94.6719 108.992 94.718 108.876 94.6983C108.591 95.3584 108.369 96.0454 108.177 96.7386C107.928 97.643 107.717 98.5584 107.519 99.4755C107.416 99.9504 107.311 100.424 107.22 100.901C107.199 101.008 107.179 101.115 107.161 101.222C107.15 101.237 107.138 101.251 107.127 101.266C106.916 101.556 106.938 101.976 107.163 102.247C107.173 102.286 107.185 102.325 107.199 102.364C107.23 102.453 107.292 102.525 107.368 102.578C107.842 101.407 108.282 100.223 108.657 99.0131C108.939 98.1016 109.227 97.1901 109.523 96.2832C109.838 95.3207 110.015 94.3442 110.236 93.3579C110.308 93.0411 110.377 92.7216 110.449 92.4021C109.821 92.7239 109.441 93.5386 109.145 94.1225C109.126 94.1584 109.11 94.1951 109.092 94.2313Z" fill="#738815"/>
<path d="M89.707 150.636C89.7635 150.758 89.8204 150.879 89.8777 151C89.9994 150.945 90.1214 150.884 90.2438 150.814C90.2807 150.792 90.3153 150.768 90.3517 150.746C90.4295 150.558 90.5114 150.371 90.5941 150.185C90.5028 150.244 90.412 150.303 90.3171 150.358C90.1125 150.477 89.9082 150.569 89.707 150.636Z" fill="#44500D"/>
<path d="M89.5257 150.23C89.5838 150.366 89.6446 150.502 89.707 150.636C89.9082 150.569 90.1125 150.477 90.3171 150.358C90.412 150.303 90.5028 150.244 90.5941 150.185C90.6802 149.991 90.767 149.798 90.8537 149.606C90.7039 149.709 90.5508 149.81 90.3905 149.903C90.098 150.073 89.8067 150.178 89.5257 150.23Z" fill="#46530C"/>
<path d="M89.3446 149.765C89.3903 149.894 89.4382 150.023 89.4909 150.15C89.5021 150.177 89.5144 150.203 89.5257 150.23C89.8067 150.178 90.098 150.073 90.3905 149.903C90.5508 149.81 90.7039 149.71 90.8537 149.606C90.9421 149.409 91.0299 149.213 91.1139 149.016C90.9079 149.171 90.6925 149.315 90.4638 149.448C90.0797 149.672 89.697 149.766 89.3446 149.765Z" fill="#48550E"/>
<path d="M89.1661 149.212C89.2208 149.398 89.2798 149.582 89.3447 149.765C89.697 149.766 90.0797 149.672 90.4638 149.448C90.6925 149.315 90.9079 149.171 91.1139 149.016C91.1628 148.902 91.2104 148.788 91.2563 148.673C91.2888 148.592 91.3203 148.511 91.3526 148.43C91.0995 148.639 90.8289 148.822 90.5372 148.993C90.0527 149.276 89.5699 149.318 89.1661 149.212Z" fill="#49560C"/>
<path d="M88.9724 148.503C89.0335 148.74 89.0969 148.978 89.166 149.212C89.5699 149.318 90.0526 149.276 90.5371 148.993C90.8289 148.822 91.0995 148.639 91.3525 148.43C91.4339 148.228 91.5137 148.024 91.5942 147.82C91.2955 148.1 90.9708 148.326 90.6104 148.538C89.9911 148.902 89.3727 148.797 88.9724 148.503Z" fill="#4C5B0D"/>
<path d="M88.395 146.453C88.3428 146.847 88.3537 147.2 88.4175 147.511C88.3993 147.158 88.3908 146.805 88.395 146.453Z" fill="#4E5D0E"/>
<path d="M96.1228 136.676C96.5823 135.564 97.1832 134.456 97.5049 133.296C97.6154 132.897 97.169 132.493 96.8116 132.798C95.8964 133.579 95.3772 134.697 94.8074 135.729C94.2214 136.79 93.7677 137.938 93.2893 139.051C92.8249 140.13 92.3444 141.204 91.813 142.252C91.5614 142.749 91.2839 143.229 90.9934 143.704C90.6455 144.272 90.2783 144.782 90.0727 145.418C89.9125 145.913 90.4455 146.583 90.977 146.262C91.282 146.078 91.5449 145.925 91.7822 145.649C91.9703 145.429 92.1355 145.182 92.2996 144.944C92.6406 144.45 92.9369 143.923 93.2211 143.395C93.727 141.846 94.1999 140.283 94.8118 138.777C94.8446 138.697 94.9743 138.721 94.9635 138.812C94.9127 139.226 94.845 139.639 94.765 140.051C94.7674 140.045 94.7698 140.04 94.7721 140.034C95.2306 138.918 95.6616 137.791 96.1228 136.676Z" fill="#738815"/>
<path d="M97.0187 150.729C95.9837 151.165 94.8751 151.424 93.7764 151.642C93.4219 151.713 93.0652 151.769 92.7075 151.815C94.1228 151.059 95.3904 149.97 96.4604 148.836C97.4096 147.831 98.2451 146.725 99.0149 145.578C99.8062 144.398 100.425 143.151 101.089 141.899C101.146 141.792 100.967 141.699 100.901 141.799C100.149 142.933 99.3632 144.046 98.603 145.176C97.8572 146.285 97.0525 147.36 96.1389 148.336C95.3411 149.188 94.4567 149.942 93.4942 150.6C92.6813 151.157 91.8259 151.567 90.9271 151.923C90.8693 151.856 90.7941 151.807 90.7163 151.764C90.9529 151.338 91.1542 150.884 91.3416 150.425C91.4259 150.218 91.5073 150.011 91.5877 149.804C91.672 149.588 91.7556 149.374 91.8399 149.162C91.8605 149.111 91.8809 149.059 91.9016 149.007C91.9755 148.825 92.0468 148.642 92.1187 148.459C92.2178 148.206 92.3149 147.953 92.4102 147.699C92.5133 147.425 92.6142 147.149 92.713 146.873C92.8198 146.575 92.9244 146.276 93.0264 145.975C93.0623 145.87 93.0992 145.765 93.1344 145.659C93.2112 145.43 93.2885 145.2 93.3658 144.969C93.4963 144.579 93.6264 144.187 93.7538 143.793C93.8883 143.377 94.0193 142.959 94.1433 142.539C94.2698 142.111 94.3887 141.682 94.4967 141.25C94.5966 140.852 94.6871 140.452 94.765 140.051C94.845 139.639 94.9126 139.226 94.9635 138.812C94.9743 138.721 94.8446 138.696 94.8117 138.777C94.1999 140.283 93.7269 141.845 93.2211 143.395C93.0984 143.771 92.9738 144.146 92.8445 144.52C92.7392 144.824 92.6314 145.128 92.5186 145.429C92.5082 145.457 92.4971 145.485 92.4865 145.513C92.3754 145.81 92.2607 146.106 92.1471 146.402C92.0513 146.651 91.9571 146.901 91.86 147.15C91.7724 147.374 91.6828 147.597 91.5942 147.82C91.5137 148.024 91.4339 148.227 91.3525 148.43C91.3202 148.511 91.2888 148.593 91.2562 148.673C91.2103 148.788 91.1627 148.902 91.1139 149.016C91.0299 149.213 90.9421 149.409 90.8537 149.606C90.767 149.798 90.6802 149.992 90.5942 150.185C90.5114 150.371 90.4296 150.558 90.3517 150.746C90.2778 150.924 90.2086 151.103 90.143 151.284C90.1236 151.337 90.1031 151.39 90.0848 151.443C90.0693 151.409 90.0531 151.375 90.0375 151.341C89.9849 151.227 89.9317 151.113 89.8777 151C89.8204 150.879 89.7635 150.758 89.707 150.636C89.6446 150.502 89.5838 150.366 89.5257 150.23C89.5144 150.203 89.5021 150.177 89.4909 150.15C89.4382 150.023 89.3903 149.894 89.3446 149.765C89.2798 149.582 89.2207 149.398 89.1661 149.212C89.0969 148.978 89.0335 148.74 88.9724 148.503C88.9356 148.359 88.899 148.215 88.8625 148.071C88.6658 147.297 88.5779 146.506 88.5746 145.714C88.5733 145.425 88.5826 145.136 88.6038 144.847C88.6251 144.554 88.6587 144.262 88.7011 143.971C88.7168 143.865 88.7307 143.758 88.7489 143.652C88.7534 143.625 88.7134 143.623 88.7078 143.648C88.6686 143.824 88.6341 144.001 88.6026 144.178C88.5461 144.496 88.5039 144.817 88.4709 145.138C88.4263 145.575 88.4004 146.014 88.395 146.453C88.3908 146.805 88.3993 147.158 88.4175 147.511C88.4294 147.744 88.4446 147.978 88.4655 148.211C88.4865 148.443 88.5229 148.674 88.5682 148.904C88.6185 149.16 88.6807 149.415 88.7501 149.667C88.8055 149.867 88.8647 150.066 88.9255 150.262C88.9387 150.305 88.9519 150.348 88.9652 150.391C89.0048 150.517 89.0465 150.642 89.09 150.767C89.1421 150.917 89.1991 151.065 89.2597 151.21C89.3156 151.344 89.3757 151.476 89.4415 151.606C89.4538 151.63 89.4645 151.655 89.4774 151.679C89.4629 151.692 89.4494 151.707 89.4367 151.721C89.4029 151.746 89.3719 151.773 89.3463 151.807C89.3139 151.848 89.2914 151.896 89.2787 151.946C89.077 151.898 88.8772 151.843 88.679 151.783C88.1288 151.617 87.5924 151.405 87.0772 151.149C86.8124 151.017 86.552 150.903 86.3028 150.768C86.0977 150.656 85.9002 150.531 85.7154 150.366C85.2805 149.979 84.9187 149.531 84.597 149.047C84.5815 149.024 84.5423 149.048 84.5553 149.073C84.8096 149.557 85.1399 149.985 85.5303 150.367C85.9234 150.753 86.3485 151.203 86.8168 151.492C87.6136 151.986 88.5207 152.267 89.4436 152.405C89.4602 152.42 89.4775 152.434 89.4955 152.447C89.5187 152.466 89.5435 152.483 89.57 152.499C89.0798 152.759 88.5955 153.031 88.1082 153.296C87.4138 153.673 86.7291 153.866 85.9755 154.026C85.91 154.04 85.8449 154.054 85.7784 154.068C85.6345 154.097 85.645 154.302 85.7891 154.322C85.9225 154.34 86.0584 154.345 86.1951 154.345C86.8845 154.342 87.6016 154.124 88.2259 153.888C88.9583 153.611 89.6338 153.18 90.2525 152.7C90.5381 153.261 90.9026 153.726 91.4221 154.14C91.7138 154.373 92.0429 154.572 92.3779 154.735C92.7759 154.929 93.2022 154.949 93.6232 155.067C93.6485 155.075 93.6632 155.037 93.6377 155.029C93.2404 154.897 92.9107 154.615 92.5611 154.392C92.278 154.212 92.0129 154.015 91.7562 153.799C91.3624 153.467 90.9744 153.087 90.6287 152.685C90.6394 152.684 90.6503 152.683 90.6609 152.682C91.122 152.886 91.5796 153.05 92.0791 153.201C92.7091 153.392 93.3132 153.661 93.9562 153.81C94.7171 153.985 95.4576 154.012 96.1976 153.887C96.504 153.835 96.8104 153.76 97.118 153.654C97.1451 153.645 97.1306 153.603 97.1035 153.607C96.8703 153.646 96.6335 153.669 96.3953 153.683C95.5318 153.734 94.6448 153.637 93.8026 153.477C93.1275 153.348 92.4862 153.201 91.8802 152.865C91.666 152.746 91.4496 152.637 91.2313 152.532C92.0765 152.511 92.9194 152.428 93.7522 152.278C94.9359 152.065 96.0508 151.656 97.161 151.201C97.7582 150.957 98.3555 150.677 98.9379 150.363C100.443 149.551 101.847 148.5 102.878 147.166C102.978 147.035 102.794 146.862 102.669 146.968C101.677 147.813 100.677 148.622 99.6077 149.327C98.7938 149.864 97.9401 150.342 97.0187 150.729Z" fill="#B2C851"/>
<path d="M108.059 139.356C107.655 139.867 107.339 140.487 106.992 141.04C106.637 141.604 106.287 142.17 105.914 142.723C105.169 143.826 104.371 144.891 103.526 145.919C103.478 145.977 103.571 146.041 103.62 145.987C104.524 144.971 105.382 143.915 106.185 142.817C106.577 142.281 106.968 141.739 107.323 141.178C107.662 140.641 108.059 140.073 108.29 139.48C108.345 139.337 108.15 139.241 108.059 139.356Z" fill="#B2C851"/>
<path d="M114.025 102.405C113.713 104.904 113.197 107.374 112.526 109.801C111.867 112.188 111.023 114.519 110.196 116.851C108.49 121.664 106.623 126.417 104.814 131.192C104.305 132.536 103.752 133.863 103.22 135.197C102.676 136.562 102.217 137.951 101.709 139.327C101.68 139.408 101.798 139.451 101.833 139.374C102.382 138.168 102.959 136.984 103.469 135.76C103.966 134.57 104.425 133.363 104.894 132.161C105.841 129.728 106.807 127.305 107.712 124.855C109.461 120.126 111.202 115.388 112.541 110.524C113.273 107.865 113.85 105.161 114.1 102.411C114.104 102.363 114.032 102.357 114.025 102.405Z" fill="#B2C851"/>
<path d="M114.319 93.0306C114.326 93.0676 114.334 93.1039 114.341 93.1409C114.581 94.4559 114.711 95.7466 114.771 97.083C114.774 97.157 114.904 97.1524 114.901 97.0772C114.86 95.7323 114.883 94.3412 114.691 93.0081C114.594 92.3382 114.455 91.6748 114.255 91.0277C114.074 90.4409 113.927 89.7047 113.469 89.2691C113.326 89.1323 113.033 89.207 113.084 89.4455C113.201 89.9921 113.542 90.4701 113.761 90.9874C113.785 91.0442 113.809 91.1014 113.83 91.1598C114.046 91.7682 114.199 92.3966 114.319 93.0306Z" fill="#B2C851"/>
<path d="M100.452 123.254C100.327 123.535 100.204 123.817 100.081 124.1C99.9374 124.433 99.7959 124.767 99.6559 125.101C99.5161 125.435 99.3785 125.771 99.2426 126.107C99.1074 126.441 98.974 126.776 98.8427 127.112C98.7118 127.448 98.5826 127.783 98.4554 128.12C98.3298 128.452 98.2058 128.785 98.0837 129.118C97.9637 129.446 97.845 129.775 97.7282 130.104C97.6146 130.424 97.5018 130.746 97.3913 131.067C97.2866 131.372 97.1841 131.677 97.0821 131.983C97.0553 132.063 97.0275 132.143 97.0009 132.224C96.984 132.275 97.0562 132.301 97.0782 132.252C97.133 132.132 97.1864 132.011 97.2409 131.89C97.3784 131.585 97.5149 131.28 97.6497 130.974C97.7867 130.663 97.9229 130.352 98.057 130.039C98.1924 129.724 98.3256 129.407 98.458 129.09C98.5914 128.77 98.7227 128.449 98.8527 128.127C98.9846 127.802 99.1142 127.476 99.2424 127.149C99.3713 126.821 99.498 126.491 99.6231 126.162C99.7488 125.83 99.8725 125.498 99.9943 125.166C100.116 124.831 100.237 124.496 100.355 124.161C100.453 123.883 100.551 123.605 100.645 123.326C100.689 123.199 100.506 123.133 100.452 123.254Z" fill="#B2C851"/>
<path d="M111.077 90.1919C111.042 90.2865 111.009 90.3817 110.976 90.4769C110.951 90.5507 110.922 90.6233 110.898 90.6972C110.891 90.7184 110.886 90.7399 110.879 90.761C110.849 90.8549 110.823 90.9503 110.795 91.0453C110.768 91.1381 110.738 91.2303 110.712 91.3238C110.693 91.3938 110.676 91.4645 110.658 91.5346C110.637 91.6166 110.616 91.6988 110.596 91.781C110.577 91.8576 110.556 91.9339 110.538 92.0108C110.518 92.0958 110.5 92.1809 110.48 92.2661C110.471 92.3053 110.463 92.344 110.454 92.3832C110.452 92.3895 110.451 92.3959 110.449 92.4022C110.377 92.7217 110.308 93.0412 110.236 93.358C110.015 94.3443 109.838 95.3208 109.523 96.2833C109.227 97.1902 108.939 98.1017 108.657 99.0132C108.282 100.223 107.842 101.407 107.368 102.578C107.336 102.658 107.303 102.738 107.27 102.818C107.236 102.901 107.203 102.985 107.168 103.067C107.126 103.17 107.082 103.273 107.039 103.376C106.992 103.488 106.945 103.6 106.897 103.713C106.85 103.825 106.801 103.936 106.753 104.048C106.705 104.158 106.659 104.268 106.611 104.378C106.609 104.384 106.607 104.389 106.605 104.394C106.554 104.512 106.508 104.631 106.46 104.75C106.412 104.868 106.362 104.986 106.317 105.105C106.271 105.227 106.229 105.35 106.185 105.472C106.141 105.595 106.096 105.718 106.055 105.841C106.013 105.966 105.974 106.091 105.934 106.216C105.534 107.475 105.229 108.763 104.884 110.038C104.598 111.099 104.321 112.179 103.932 113.207C103.531 114.264 103.102 115.31 102.675 116.357C102.661 116.391 102.715 116.412 102.729 116.377C103.485 114.56 104.26 112.74 104.947 110.896C105.497 109.418 105.831 107.877 106.28 106.369C106.317 106.245 106.353 106.12 106.392 105.996C106.431 105.872 106.474 105.749 106.515 105.626C106.552 105.514 106.587 105.402 106.626 105.291C106.63 105.28 106.635 105.269 106.639 105.258C106.682 105.137 106.73 105.017 106.776 104.898C106.822 104.777 106.867 104.656 106.916 104.536C106.964 104.421 107.013 104.306 107.063 104.191C107.11 104.08 107.157 103.968 107.206 103.858C107.249 103.761 107.293 103.664 107.338 103.567C107.38 103.473 107.422 103.378 107.465 103.285C107.509 103.189 107.554 103.093 107.598 102.998C107.647 102.891 107.697 102.784 107.746 102.677C108.154 101.798 108.555 100.916 108.849 99.9839C109.117 99.1332 109.324 98.2712 109.513 97.3997C109.727 96.4134 109.863 95.4248 110.169 94.4601C110.401 93.7265 110.634 92.9935 110.894 92.2703C110.897 92.2631 110.899 92.256 110.902 92.2489C110.912 92.2189 110.923 92.189 110.934 92.1593C110.962 92.0821 110.993 92.0058 111.022 91.9287C111.049 91.8587 111.075 91.7886 111.102 91.7188C111.132 91.6423 111.16 91.565 111.19 91.4889C111.197 91.473 111.202 91.4567 111.209 91.4407C111.225 91.3998 111.24 91.358 111.257 91.3171C111.292 91.2277 111.327 91.1376 111.361 91.0476C111.397 90.9558 111.433 90.8643 111.468 90.7723C111.504 90.6794 111.541 90.5871 111.577 90.494C111.613 90.4003 111.65 90.3069 111.687 90.2133C111.721 90.1273 111.753 90.0405 111.788 89.9546C111.791 89.9475 111.795 89.9407 111.798 89.9333C111.995 89.4588 112.274 89.0021 112.33 88.487C112.348 88.3237 112.127 88.1875 112 88.312C111.694 88.6139 111.563 88.9656 111.4 89.3614C111.325 89.542 111.254 89.7239 111.183 89.9066C111.147 90.0012 111.112 90.0967 111.077 90.1919Z" fill="#B2C851"/>
<path d="M90.3624 136.1C90.4196 135.831 90.4767 135.563 90.5339 135.294C90.535 135.289 90.5267 135.288 90.5256 135.293C90.4685 135.562 90.4114 135.831 90.3542 136.099C90.3531 136.104 90.3614 136.105 90.3624 136.1Z" fill="#B2C851"/>
<path d="M88.9623 141.616C88.9538 141.68 88.9756 141.728 89.0117 141.76C89.1059 141.845 89.3003 141.815 89.3243 141.648C89.363 141.376 89.4015 141.104 89.4334 140.833C89.4672 140.546 89.4925 140.258 89.5003 139.971C89.5063 139.747 89.5006 139.522 89.4806 139.297C89.4733 139.216 89.4662 139.135 89.4548 139.054C89.4456 138.988 89.337 138.972 89.3199 139.041C89.2416 139.359 89.1877 139.679 89.1451 140.002C89.103 140.318 89.0718 140.636 89.0386 140.953C89.0156 141.174 88.9915 141.395 88.9623 141.616Z" fill="#B2C851"/>
<path d="M90.4296 135.906C91.5017 133.145 92.6135 130.4 93.784 127.679C94.3566 126.348 94.8964 125 95.4831 123.676C96.093 122.3 96.7909 120.959 97.4431 119.602C97.4651 119.556 97.3891 119.515 97.3638 119.56C96.6427 120.832 96.0032 122.133 95.3535 123.443C94.6917 124.777 94.0163 126.083 93.4311 127.454C92.2566 130.207 91.244 133.024 90.4064 135.897C90.4019 135.912 90.4238 135.921 90.4296 135.906Z" fill="#B2C851"/>
<path d="M84.3037 148.318C84.2819 148.115 84.2623 147.919 84.2128 147.721C84.1979 147.661 84.0989 147.655 84.0981 147.725C84.0959 147.936 84.1225 148.137 84.1492 148.345C84.162 148.446 84.3144 148.418 84.3037 148.318Z" fill="#B2C851"/>
<path d="M108.695 114.788C108.823 114.444 108.29 114.243 108.162 114.588C108.033 114.933 108.567 115.133 108.695 114.788Z" fill="#C7D978"/>
<path d="M116.486 107.444C116.362 107.778 116.88 107.973 117.004 107.638C117.129 107.303 116.611 107.109 116.486 107.444Z" fill="#C7D978"/>
<path d="M106.666 137.34C106.796 136.991 106.254 136.787 106.124 137.138C105.994 137.487 106.535 137.69 106.666 137.34Z" fill="#C7D978"/>
<path d="M100.457 132.532C100.483 132.462 100.375 132.422 100.349 132.491C100.323 132.561 100.431 132.602 100.457 132.532Z" fill="#C7D978"/>
<path d="M97.9404 124.209C97.9713 124.126 97.9664 124.051 97.9403 123.988C97.8457 123.757 97.457 123.684 97.3447 123.986C97.2495 124.242 97.4813 124.425 97.6892 124.406C97.7938 124.397 97.8925 124.338 97.9404 124.209Z" fill="#C7D978"/>
<path d="M112.115 121.273C111.957 121.697 112.614 121.943 112.773 121.518C112.93 121.094 112.273 120.848 112.115 121.273Z" fill="#C7D978"/>
<path d="M110.591 102.1C110.507 102.059 110.408 102.048 110.32 102.079C110.241 102.107 110.172 102.168 110.133 102.271C110.108 102.338 110.106 102.399 110.118 102.455C110.139 102.55 110.204 102.625 110.287 102.67C110.37 102.714 110.47 102.728 110.559 102.701C110.644 102.676 110.719 102.614 110.76 102.505C110.788 102.429 110.789 102.359 110.771 102.298C110.744 102.209 110.675 102.14 110.591 102.1Z" fill="#C7D978"/>
<path d="M108.876 94.6982C108.992 94.718 109.117 94.6719 109.17 94.5291C109.217 94.4027 109.172 94.2965 109.092 94.2313C109.024 94.1758 108.931 94.1503 108.845 94.1664C108.764 94.1812 108.69 94.2335 108.652 94.3351C108.622 94.4149 108.63 94.4863 108.659 94.5451C108.701 94.6271 108.785 94.6826 108.876 94.6982Z" fill="#C7D978"/>
<path d="M92.7323 136.816C92.676 136.847 92.6277 136.898 92.5989 136.975C92.5794 137.027 92.5751 137.076 92.5805 137.121C92.5947 137.238 92.6811 137.327 92.7864 137.365C92.9311 137.419 93.1096 137.379 93.179 137.192C93.2395 137.03 93.1643 136.897 93.0486 136.829C92.9529 136.773 92.8301 136.763 92.7323 136.816Z" fill="#C7D978"/>
<path d="M96.9769 140.588C96.9053 140.55 96.8184 140.539 96.7429 140.566C96.679 140.589 96.6234 140.639 96.5924 140.722C96.5664 140.792 96.5701 140.856 96.5916 140.91C96.6218 140.985 96.6878 141.041 96.7647 141.067C96.8534 141.098 96.9545 141.088 97.028 141.023C97.0588 140.996 97.0853 140.961 97.1031 140.913C97.1165 140.877 97.121 140.843 97.1207 140.811C97.1197 140.711 97.0589 140.632 96.9769 140.588Z" fill="#C7D978"/>
<path d="M117.575 101.091C117.534 101.201 117.704 101.264 117.745 101.155C117.786 101.045 117.616 100.981 117.575 101.091Z" fill="#C7D978"/>
</g>
<defs>
<clipPath id="clip0_307_7467">
<rect width="64.3989" height="64.5072" fill="white" transform="matrix(0.909225 -0.416305 0.414541 0.910031 58.1793 106.07)"/>
</clipPath>
</defs>
</svg>
